<svg xmlns="http://www.w3.org/2000/svg" xmlns:xlink="http://www.w3.org/1999/xlink" xmlns:inkscape="http://www.inkscape.org/namespaces/inkscape" version="1.1" width="792" height="612" viewBox="0 0 792 612">
<defs>
<clipPath id="clip_14">
<path transform="matrix(.66554626,0,0,-.66554626,0,585.8622)" d="M0 0H595V841H0Z"/>
</clipPath>
<clipPath id="clip_15">
<path transform="matrix(.0013101304,0,0,.0013101304,0,26.137818)" d="M0 0H302400V427680H0V0Z"/>
</clipPath>
<clipPath id="clip_16">
<path transform="matrix(.66554626,0,0,-.66554626,396,585.8622)" d="M0 0H595V841H0Z"/>
</clipPath>
<clipPath id="clip_17">
<path transform="matrix(.0013101304,0,0,.0013101304,396,26.137818)" d="M0 0H302400V427680H0V0Z"/>
</clipPath>
</defs>
<g clip-path="url(#clip_14)">
<g clip-path="url(#clip_15)">
<path transform="matrix(.0013101304,0,0,.0013101304,0,26.137818)" d="M0 0H302400V427680H0Z" fill="#ffffff" fill-rule="evenodd"/>
<path transform="matrix(.0013101304,0,0,.0013101304,0,26.137818)" d="M7518.0197 13572.87H294030.04V46812.87H7518.0197Z" fill-opacity="0" fill-rule="evenodd"/>
<text xml:space="preserve" transform="matrix(.49915967 0 0 .49915967 9.849586 43.920045)" font-size="17.333334" font-family="Arial" font-weight="bold"><tspan y="20.64" x="9 18.637335 24.409337 34.04667 38.848005">7-1. </tspan></text>
<text xml:space="preserve" transform="matrix(.49915967 0 0 .49915967 9.849586 43.920045)" font-size="17.333334" font-family="ArialMT"><tspan y="20.64" x="43.673204 55.598539 65.23587 73.902538 82.03187 90.69853 100.07587 104.8772 112.451869 117.2532 131.50119 141.13852 150.81052 160.91585 169.58252">&#x0414;&#x043e;&#x0441;&#x0442;&#x0443;&#x043f; &#x043a; &#x0444;&#x0430;&#x0439;&#x043b;&#x0443; </tspan></text>
<text xml:space="preserve" transform="matrix(.49915967 0 0 .49915967 9.849586 43.920045)" font-size="17.333334" font-family="Arial" font-weight="bold"><tspan y="20.64" x="174.45503 179.25637 189.8297 195.6017 200.40303 210.97637 221.5497 231.18703 235.98836">inf.doc, </tspan></text>
<text xml:space="preserve" transform="matrix(.49915967 0 0 .49915967 9.849586 43.920045)" font-size="17.333334" font-family="ArialMT"><tspan y="20.64" x="240.87393 250.44193 260.07926 268.55525 277.82856 287.9339 297.31123 311.36854 321.00587 333.10453 341.5805 350.24717 359.62449 364.4258 373.9938 383.63114 388.43247 397.09913 406.73646 416.37379 425.38713 435.02445 444.66178 454.2991">&#x043d;&#x0430;&#x0445;&#x043e;&#x0434;&#x044f;&#x0449;&#x0435;&#x043c;&#x0443;&#x0441;&#x044f; &#x043d;&#x0430; &#x0441;&#x0435;&#x0440;&#x0432;&#x0435;&#x0440;&#x0435; </tspan></text>
<text xml:space="preserve" transform="matrix(.49915967 0 0 .49915967 9.849586 43.920045)" font-size="17.333334" font-family="Arial" font-weight="bold"><tspan y="20.64" x="459.13374 469.70707 480.2804 486.06974 490.87107 501.4444 508.18708 518.7604 523.5617">obr.org, </tspan></text>
<text xml:space="preserve" transform="matrix(.49915967 0 0 .49915967 9.849586 43.920045)" font-size="17.333334" font-family="ArialMT"><tspan y="20.64" x="528.44607 538.0834 546.75009 555.41677 569.47409 579.1114 587.7781 595.71676 604.53939 614.6447 624.02206 633.08737 640.8353 649.502 658.87936 663.68069 673.058 682.6953">&#x043e;&#x0441;&#x0443;&#x0449;&#x0435;&#x0441;&#x0442;&#x0432;&#x043b;&#x044f;&#x0435;&#x0442;&#x0441;&#x044f; &#x043f;&#x043e; </tspan></text>
<text xml:space="preserve" transform="matrix(.49915967 0 0 .49915967 9.849586 43.920045)" font-size="17.333334" font-family="ArialMT"><tspan y="41.44" x="9 18.377335 28.01467 37.288007 45.036008 54.67334 62.438676 71.71201 81.817348 90.48401">&#x043f;&#x0440;&#x043e;&#x0442;&#x043e;&#x043a;&#x043e;&#x043b;&#x0443; </tspan></text>
<text xml:space="preserve" transform="matrix(.49915967 0 0 .49915967 9.849586 43.920045)" font-size="17.333334" font-family="Arial" font-weight="bold"><tspan y="41.44" x="95.27663 105.84996 111.62196 117.39397 127.9673 137.60463 142.40596">https. </tspan></text>
<text xml:space="preserve" transform="matrix(.49915967 0 0 .49915967 9.849586 43.920045)" font-size="17.333334" font-family="ArialMT"><tspan y="41.44" x="147.25258 160.42592 170.06325 179.70058 186.00992 197.91793 207.55525 217.12326 225.06194 237.50727 242.3086 251.94593 262.05128 271.6886 281.32594 289.99259 299.6299 304.43125 318.67927 328.3166 337.9886 348.09394 357.73127 362.5326 370.47126 380.10859 387.87394 397.14726 407.2526 416.9246 426.56193 436.19926 445.2126 454.8499 464.4179 476.86326 481.66459 491.57926 501.25126 515.49929 525.1366 534.7739 546.68197 556.35397 561.1553 570.4286 578.36727 583.1686 592.8059 597.60726 607.7126 617.3499 622.15127 631.7886 636.5899 641.39126 651.8606 661.4979 670.87527 680.54727 694.44857 704.12057 711.8685 721.50588">&#x0424;&#x0440;&#x0430;&#x0433;&#x043c;&#x0435;&#x043d;&#x0442;&#x044b; &#x0430;&#x0434;&#x0440;&#x0435;&#x0441;&#x0430; &#x0444;&#x0430;&#x0439;&#x043b;&#x0430; &#x0437;&#x0430;&#x043a;&#x043e;&#x0434;&#x0438;&#x0440;&#x043e;&#x0432;&#x0430;&#x043d;&#x044b; &#x0446;&#x0438;&#x0444;&#x0440;&#x0430;&#x043c;&#x0438; &#x043e;&#x0442; 1 &#x0434;&#x043e; 7. &#x0417;&#x0430;&#x043f;&#x0438;&#x0448;&#x0438;&#x0442;&#x0435; </tspan></text>
<text xml:space="preserve" transform="matrix(.49915967 0 0 .49915967 9.849586 43.920045)" font-size="17.333334" font-family="ArialMT"><tspan y="62.239999" x="9 18.377335 28.01467 36.681337 46.786668 56.060007 66.16534 75.80267 84.81601 94.08935 101.83735 110.90269 121.00802 130.02135 139.58936 149.22669 157.89336 165.83203 174.84537 179.6467 188.1227 196.06137 205.73337 214.40004 219.20137 229.11605 238.78804 253.03604 262.67338 267.4747 272.27604 280.04139 289.3147 299.42005 309.09205 318.5387 327.20536 340.20536 354.64405 363.3107 376.3107 381.11204 390.74937 400.8547 410.49205 420.12937 428.79603 433.59736 442.264 450.2027 459.64936 467.588 477.22535 486.79335 496.36134 505.99867 511.94398 521.5813 526.3826 540.6306 550.26797 559.93997 570.0453 579.6826 584.48397 593.6879 598.48928 607.15597 616.22128 624.1599 633.8319 638.63327 651.07858 660.64657 668.39456 678.03189 687.6692 697.2372 706.3025 712.3345">&#x043f;&#x043e;&#x0441;&#x043b;&#x0435;&#x0434;&#x043e;&#x0432;&#x0430;&#x0442;&#x0435;&#x043b;&#x044c;&#x043d;&#x043e;&#x0441;&#x0442;&#x044c; &#x044d;&#x0442;&#x0438;&#x0445; &#x0446;&#x0438;&#x0444;&#x0440;, &#x043a;&#x043e;&#x0434;&#x0438;&#x0440;&#x0443;&#x044e;&#x0449;&#x0443;&#x044e; &#x0430;&#x0434;&#x0440;&#x0435;&#x0441; &#x0443;&#x043a;&#x0430;&#x0437;&#x0430;&#x043d;&#x043d;&#x043e;&#x0433;&#x043e; &#x0444;&#x0430;&#x0439;&#x043b;&#x0430; &#x0432; &#x0441;&#x0435;&#x0442;&#x0438; &#x0418;&#x043d;&#x0442;&#x0435;&#x0440;&#x043d;&#x0435;&#x0442;.</tspan></text>
<path transform="matrix(.0013101304,0,0,.0013101304,0,26.137818)" d="M92153.46 46812.39H210246.46V89044.39H92153.46V46812.39Z" fill="#ffffff" fill-opacity="0"/>
<text xml:space="preserve" transform="matrix(.49915967 0 0 .49915967 120.73305 87.468158)" font-size="17.333334" font-family="ArialMT"><tspan y="20.64" x="9 18.637335 24.409337 29.21067 38.848009 48.485345 53.30401">1) obr.</tspan></text>
<text xml:space="preserve" transform="matrix(.49915967 0 0 .49915967 120.73305 87.468158)" font-size="17.333334" font-family="ArialMT"><tspan y="41.44" x="9 18.637335 24.409337 29.21067">2) /</tspan></text>
<text xml:space="preserve" transform="matrix(.49915967 0 0 .49915967 120.73305 87.468158)" font-size="17.333334" font-family="ArialMT"><tspan y="62.239999" x="9 18.637335 24.409337 29.21067 38.848009 44.620008">3) org</tspan></text>
<text xml:space="preserve" transform="matrix(.49915967 0 0 .49915967 120.73305 87.468158)" font-size="17.333334" font-family="ArialMT"><tspan y="83.03999" x="9 18.637335 24.409337 29.21067 34.012006 38.81334">4) ://</tspan></text>
<text xml:space="preserve" transform="matrix(.49915967 0 0 .49915967 192.1417 87.468158)" font-size="17.333334" font-family="ArialMT"><tspan y="20.64" x="9 18.637335 24.409337 29.21067 38.848009 48.485345">5) doc</tspan></text>
<text xml:space="preserve" transform="matrix(.49915967 0 0 .49915967 192.1417 87.468158)" font-size="17.333334" font-family="ArialMT"><tspan y="41.44" x="9 18.637335 24.409337 29.21067 33.05867 42.696008 47.49734">6) inf.</tspan></text>
<text xml:space="preserve" transform="matrix(.49915967 0 0 .49915967 192.1417 87.468158)" font-size="17.333334" font-family="ArialMT"><tspan y="62.239999" x="9 18.637335 24.409337 29.21067 38.848009 43.64934 48.450677 58.088014">7) https</tspan></text>
<path transform="matrix(.0013101304,0,0,.0013101304,0,26.137818)" d="M7517.9357 81722.87H294029.95V134654.88H7517.9357Z" fill-opacity="0" fill-rule="evenodd"/>
<text xml:space="preserve" transform="matrix(.49915967 0 0 .49915967 9.849476 133.20543)" font-size="17.333334" font-family="Arial" font-weight="bold"><tspan y="20.64" x="9 18.637335 24.409337 34.04667 38.848005">7-2. </tspan></text>
<text xml:space="preserve" transform="matrix(.49915967 0 0 .49915967 9.849476 133.20543)" font-size="17.333334" font-family="ArialMT"><tspan y="20.64" x="45.007547 58.18088 67.818218 77.49022 87.59555">&#x0424;&#x0430;&#x0439;&#x043b; </tspan></text>
<text xml:space="preserve" transform="matrix(.49915967 0 0 .49915967 9.849476 133.20543)" font-size="17.333334" font-family="Arial" font-weight="bold"><tspan y="20.64" x="93.757358 98.558689 109.13202 119.70535 130.27869 135.08002 139.88135 150.45468 161.02802">logo.jpg </tspan></text>
<text xml:space="preserve" transform="matrix(.49915967 0 0 .49915967 9.849476 133.20543)" font-size="17.333334" font-family="ArialMT"><tspan y="20.64" x="167.27256 177.18723 189.63256 199.73789 205.85655 215.06055 227.50588 237.80188 247.24854 258.8272 268.46455 278.03254 284.15119 293.3552 299.47386 311.9192 321.48719 329.23518 338.8725 348.50984 358.07783 367.14317 374.89115 384.52848 390.64714 400.02445 409.66178 415.78044 425.41777 435.5231 445.16044 454.79777 463.46443 472.13108 478.24974 487.88706 492.6884 497.48973 507.12705 515.7937 520.59506 525.39639 530.1977 539.835 549.47238 554.291 559.09237 564.8643 574.50167 579.303 593.74166 603.37899 612.04568 616.847 620.695 630.33236 639.96969 649.607 654.4083 658.25637 667.8937 677.531 682.33236 688.451 700.8963 710.1696 717.9176 727.55496 739.46298">&#x0431;&#x044b;&#x043b; &#x0432;&#x044b;&#x043b;&#x043e;&#x0436;&#x0435;&#x043d; &#x0432; &#x0418;&#x043d;&#x0442;&#x0435;&#x0440;&#x043d;&#x0435;&#x0442;&#x0435; &#x043f;&#x043e; &#x0430;&#x0434;&#x0440;&#x0435;&#x0441;&#x0443; https://obr.ru/may/logo.jpg. &#x041f;&#x043e;&#x0442;&#x043e;&#x043c; </tspan></text>
<text xml:space="preserve" transform="matrix(.49915967 0 0 .49915967 9.849476 133.20543)" font-size="17.333334" font-family="ArialMT"><tspan y="41.44" x="9 18.637335 24.582669 34.22 39.472005 48.84934 58.48667 68.12401 77.761348 89.66934 99.30668 107.97334 115.91201 125.584018 135.68935 145.36135 150.61334 159.81734 165.06934 172.83467 182.472 192.10933 201.67734 211.31467 220.32799 229.96532 239.63732 244.88932 252.82798 262.1013 269.84928 279.4866 289.78263 299.41996 305.72929 310.98127 320.54927 330.18659 335.43858 344.10523 353.74256 363.41456 371.16255 380.79988">&#x0435;&#x0433;&#x043e; &#x043f;&#x0435;&#x0440;&#x0435;&#x043c;&#x0435;&#x0441;&#x0442;&#x0438;&#x043b;&#x0438; &#x0432; &#x043a;&#x043e;&#x0440;&#x043d;&#x0435;&#x0432;&#x043e;&#x0439; &#x043a;&#x0430;&#x0442;&#x0430;&#x043b;&#x043e;&#x0433; &#x043d;&#x0430; &#x0441;&#x0430;&#x0439;&#x0442;&#x0435; </tspan></text>
<text xml:space="preserve" transform="matrix(.49915967 0 0 .49915967 9.849476 133.20543)" font-size="17.333334" font-family="Arial" font-weight="bold"><tspan y="41.44" x="386.2676 395.90495 406.47828 417.0516 421.85295 432.42628 442.0636 447.8356 452.63694">edu.net, </tspan></text>
<text xml:space="preserve" transform="matrix(.49915967 0 0 .49915967 9.849476 133.20543)" font-size="17.333334" font-family="ArialMT"><tspan y="41.44" x="457.9698 468.07514 477.71247 486.37913 494.50846 503.1751 512.5524 517.80447 525.3791 530.6311 538.3964 547.66976 555.4177 565.05508 574.6924 584.3297 596.4284 605.0951 610.3471 619.98446 628.6511 637.3178 651.3751 661.01248 669.67916 677.6178 686.4404 696.5458 705.9231 714.9884 722.7364 731.4031 740.7804">&#x0434;&#x043e;&#x0441;&#x0442;&#x0443;&#x043f; &#x043a; &#x043a;&#x043e;&#x0442;&#x043e;&#x0440;&#x043e;&#x043c;&#x0443; &#x043e;&#x0441;&#x0443;&#x0449;&#x0435;&#x0441;&#x0442;&#x0432;&#x043b;&#x044f;&#x0435;&#x0442;&#x0441;&#x044f; </tspan></text>
<text xml:space="preserve" transform="matrix(.49915967 0 0 .49915967 9.849476 133.20543)" font-size="17.333334" font-family="ArialMT"><tspan y="62.239999" x="9 18.377335 28.01467 34.861337 44.23867 53.876008 63.149347 70.89735 80.53468 88.30002 97.57336 107.67869 116.34535">&#x043f;&#x043e; &#x043f;&#x0440;&#x043e;&#x0442;&#x043e;&#x043a;&#x043e;&#x043b;&#x0443; </tspan></text>
<text xml:space="preserve" transform="matrix(.49915967 0 0 .49915967 9.849476 133.20543)" font-size="17.333334" font-family="Arial" font-weight="bold"><tspan y="62.239999" x="123.22985 133.80319 139.5752 145.3472 155.92053 160.72187">http. </tspan></text>
<text xml:space="preserve" transform="matrix(.49915967 0 0 .49915967 9.849476 133.20543)" font-size="17.333334" font-family="ArialMT"><tspan y="62.239999" x="167.628 180.07334 191.98134 201.35868 208.20534 222.45334 232.09067 241.76267 251.868 261.50535 268.352 277.91999 287.5573 294.40397 304.07597 312.01463 323.9226 333.55995 343.12794 352.79994 363.09596 372.73329 381.39994 390.41328 395.2146 402.06126 412.30528 420.24397 429.8813 441.45997 451.13197 458.87995 468.51728 475.36393 484.93193 494.56925 503.77326 516.21859 525.89059 532.73727 542.3746 552.4799 562.11727 571.7546 580.42129 587.26797 595.93466 603.8733 613.31997 621.2586 630.89596 640.4639 650.0319 659.66928 665.61459 675.2519 682.0986 696.34658 705.9839 715.6559 725.7612 735.39859 740.1999">&#x0418;&#x043c;&#x044f; &#x0444;&#x0430;&#x0439;&#x043b;&#x0430; &#x043d;&#x0435; &#x0438;&#x0437;&#x043c;&#x0435;&#x043d;&#x0438;&#x043b;&#x043e;&#x0441;&#x044c;. &#x0423;&#x043a;&#x0430;&#x0436;&#x0438;&#x0442;&#x0435; &#x043d;&#x043e;&#x0432;&#x044b;&#x0439; &#x0430;&#x0434;&#x0440;&#x0435;&#x0441; &#x0443;&#x043a;&#x0430;&#x0437;&#x0430;&#x043d;&#x043d;&#x043e;&#x0433;&#x043e; &#x0444;&#x0430;&#x0439;&#x043b;&#x0430;. </tspan></text>
<text xml:space="preserve" transform="matrix(.49915967 0 0 .49915967 9.849476 133.20543)" font-size="17.333334" font-family="ArialMT"><tspan y="83.03999" x="9 22.173336 31.81067 41.448007 47.75734 59.66534 69.30267 78.870677 86.80934 99.25468 111.83868 121.47601 131.58135 141.21868 150.856 159.52268 169.16 181.744 195.992 205.62934 215.30133 225.40666 235.04399 247.62799 255.56667 265.204 272.96937 282.24269 292.34803 302.02003 311.65736 321.29469 330.308 339.94535 349.51335 361.95869 374.54267 384.45735 394.12934 408.37733 418.01466 427.65199 439.55998 449.23197 461.81596 471.08927 479.02793 491.6119 501.24925 513.83328 523.9386 533.5759 546.1599 555.79727 560.5986 573.18258 583.6519 593.28927 602.66659 612.33859 626.23989 635.91189 643.65988 653.2972 665.88119 675.08517 687.6691 696.94247 704.8811 713.8944 722.9597 730.7077 740.34506">&#x0424;&#x0440;&#x0430;&#x0433;&#x043c;&#x0435;&#x043d;&#x0442;&#x044b; &#x0430;&#x0434;&#x0440;&#x0435;&#x0441;&#x0430; &#x0444;&#x0430;&#x0439;&#x043b;&#x0430; &#x0437;&#x0430;&#x043a;&#x043e;&#x0434;&#x0438;&#x0440;&#x043e;&#x0432;&#x0430;&#x043d;&#x044b; &#x0446;&#x0438;&#x0444;&#x0440;&#x0430;&#x043c;&#x0438; &#x043e;&#x0442; 1 &#x0434;&#x043e; 7. &#x0417;&#x0430;&#x043f;&#x0438;&#x0448;&#x0438;&#x0442;&#x0435; &#x0432; &#x043e;&#x0442;&#x0432;&#x0435;&#x0442;&#x0435; </tspan></text>
<text xml:space="preserve" transform="matrix(.49915967 0 0 .49915967 9.849476 133.20543)" font-size="17.333334" font-family="ArialMT"><tspan y="103.84" x="9 18.377335 28.01467 36.681337 46.786668 56.060007 66.16534 75.80267 84.81601 94.08935 101.83735 110.90269 121.00802 130.02135 139.58936 149.22669 157.89336 165.83203 174.84537 179.6467 188.1227 196.06137 205.73337 214.40004 219.20137 229.11605 238.78804 253.03604 262.67338 267.4747 272.27604 280.04139 289.3147 299.42005 309.09205 318.5387 327.20536 340.20536 354.64405 363.3107 376.3107 381.11204 390.74937 400.8547 410.49205 420.12937 428.79603 433.59736 442.264 450.2027 459.64936 467.588 477.22535 486.79335 496.36134 505.99867 511.94398 521.5813 526.3826 540.6306 550.26797 559.93997 570.0453 579.6826 584.48397 593.6879 598.48928 607.15597 616.22128 624.1599 633.8319 638.63327 651.07858 660.64657 668.39456 678.03189 687.6692 697.2372 706.3025 712.3345">&#x043f;&#x043e;&#x0441;&#x043b;&#x0435;&#x0434;&#x043e;&#x0432;&#x0430;&#x0442;&#x0435;&#x043b;&#x044c;&#x043d;&#x043e;&#x0441;&#x0442;&#x044c; &#x044d;&#x0442;&#x0438;&#x0445; &#x0446;&#x0438;&#x0444;&#x0440;, &#x043a;&#x043e;&#x0434;&#x0438;&#x0440;&#x0443;&#x044e;&#x0449;&#x0443;&#x044e; &#x0430;&#x0434;&#x0440;&#x0435;&#x0441; &#x0443;&#x043a;&#x0430;&#x0437;&#x0430;&#x043d;&#x043d;&#x043e;&#x0433;&#x043e; &#x0444;&#x0430;&#x0439;&#x043b;&#x0430; &#x0432; &#x0441;&#x0435;&#x0442;&#x0438; &#x0418;&#x043d;&#x0442;&#x0435;&#x0440;&#x043d;&#x0435;&#x0442;.</tspan></text>
<path transform="matrix(.0013101304,0,0,.0013101304,0,26.137818)" d="M88413.46 125549.63H206506.46V167781.63H88413.46V125549.63Z" fill="#ffffff" fill-opacity="0"/>
<text xml:space="preserve" transform="matrix(.49915967 0 0 .49915967 115.83315 190.62419)" font-size="17.333334" font-family="ArialMT"><tspan y="20.64" x="9 18.637335 24.409337 29.21067 33.05867 42.696008 52.333345 61.97068">1) logo.</tspan></text>
<text xml:space="preserve" transform="matrix(.49915967 0 0 .49915967 115.83315 190.62419)" font-size="17.333334" font-family="ArialMT"><tspan y="41.44" x="9 18.637335 24.409337 29.21067 34.012006 38.81334">2) ://</tspan></text>
<text xml:space="preserve" transform="matrix(.49915967 0 0 .49915967 115.83315 190.62419)" font-size="17.333334" font-family="ArialMT"><tspan y="62.239999" x="9 18.637335 24.409337 29.21067 33.05867 42.696008">3) jpg</tspan></text>
<text xml:space="preserve" transform="matrix(.49915967 0 0 .49915967 115.83315 190.62419)" font-size="17.333334" font-family="ArialMT"><tspan y="83.03999" x="9 18.637335 24.409337 29.21067">4) /</tspan></text>
<text xml:space="preserve" transform="matrix(.49915967 0 0 .49915967 187.24182 190.62419)" font-size="17.333334" font-family="ArialMT"><tspan y="20.64" x="9 18.637335 24.409337 29.21067 34.012006 43.649339 53.286676">5) .net</tspan></text>
<text xml:space="preserve" transform="matrix(.49915967 0 0 .49915967 187.24182 190.62419)" font-size="17.333334" font-family="ArialMT"><tspan y="41.44" x="9 18.637335 24.409337 29.21067 38.848009 43.64934 48.450677">6) http</tspan></text>
<text xml:space="preserve" transform="matrix(.49915967 0 0 .49915967 187.24182 190.62419)" font-size="17.333334" font-family="ArialMT"><tspan y="62.239999" x="9 18.637335 24.409337 29.21067 38.848009 48.485345">7) edu</tspan></text>
<path transform="matrix(.0013101304,0,0,.0013101304,0,26.137818)" d="M7516.9997 161020.88H294029V213952.88H7516.9997Z" fill-opacity="0" fill-rule="evenodd"/>
<text xml:space="preserve" transform="matrix(.49915967 0 0 .49915967 9.848249 237.09615)" font-size="17.333334" font-family="Arial" font-weight="bold"><tspan y="20.64" x="9 18.637335 24.409337 34.04667 38.848005">7-3. </tspan></text>
<text xml:space="preserve" transform="matrix(.49915967 0 0 .49915967 9.848249 237.09615)" font-size="17.333334" font-family="ArialMT"><tspan y="20.64" x="44.25511 57.428449 67.06578 76.73778 86.84311">&#x0424;&#x0430;&#x0439;&#x043b; </tspan></text>
<text xml:space="preserve" transform="matrix(.49915967 0 0 .49915967 9.848249 237.09615)" font-size="17.333334" font-family="Arial" font-weight="bold"><tspan y="20.64" x="92.25249 97.05382 107.62715 113.399158 118.200489 128.77382 139.34716 148.98448 158.62181">inf.docx </tspan></text>
<text xml:space="preserve" transform="matrix(.49915967 0 0 .49915967 9.848249 237.09615)" font-size="17.333334" font-family="ArialMT"><tspan y="20.64" x="164.07607 173.99074 186.43607 196.5414 201.91474 211.11873 223.56406 233.86006 243.30672 254.88539 264.52275 274.09074 279.46406 288.66807 294.04139 306.48674 316.05473 323.8027 333.44004 343.07737 352.64537 361.7107 369.45869 379.096 384.46934 393.84666 403.48399 408.8573 418.49464 428.59999 438.2373 447.87464 456.5413 465.20796 470.58128 480.2186 485.01994 489.82127 499.4586 504.25993 509.06126 513.8626 522.5293 531.196 540.8333 550.47067 560.108 563.956 568.7573 574.5293 584.1666 588.96798 592.816 602.4533 607.25466 612.05599 621.6933 631.3306 639.9973 648.664 653.46536 658.8387 671.284 680.5573 688.3053 697.9426 709.85067 715.224 724.8613 730.80667 740.444">&#x0431;&#x044b;&#x043b; &#x0432;&#x044b;&#x043b;&#x043e;&#x0436;&#x0435;&#x043d; &#x0432; &#x0418;&#x043d;&#x0442;&#x0435;&#x0440;&#x043d;&#x0435;&#x0442;&#x0435; &#x043f;&#x043e; &#x0430;&#x0434;&#x0440;&#x0435;&#x0441;&#x0443; http://school.ru/inf.docx. &#x041f;&#x043e;&#x0442;&#x043e;&#x043c; &#x0435;&#x0433;&#x043e; </tspan></text>
<text xml:space="preserve" transform="matrix(.49915967 0 0 .49915967 9.848249 237.09615)" font-size="17.333334" font-family="ArialMT"><tspan y="41.44" x="9 18.377335 28.01467 37.652006 47.289339 59.19734 68.83467 77.501338 85.44 95.112 105.21733 114.88933 122.01333 131.21733 138.34133 146.27999 155.55332 163.30132 172.93865 183.23465 192.87198 199.1813">&#x043f;&#x0435;&#x0440;&#x0435;&#x043c;&#x0435;&#x0441;&#x0442;&#x0438;&#x043b;&#x0438; &#x0432; &#x043a;&#x0430;&#x0442;&#x0430;&#x043b;&#x043e;&#x0433; </tspan></text>
<text xml:space="preserve" transform="matrix(.49915967 0 0 .49915967 9.848249 237.09615)" font-size="17.333334" font-family="Arial" font-weight="bold"><tspan y="41.44" x="206.4024 211.20374 221.77707 227.54907 238.1224 244.86507">inform</tspan></text>
<text xml:space="preserve" transform="matrix(.49915967 0 0 .49915967 9.848249 237.09615)" font-size="17.333334" font-family="ArialMT"><tspan y="41.44" x="260.30747 267.43147 276.99946 286.63679 293.76078 302.42744 312.06477 321.73677 329.48475 339.12208"> &#x043d;&#x0430; &#x0441;&#x0430;&#x0439;&#x0442;&#x0435; </tspan></text>
<text xml:space="preserve" transform="matrix(.49915967 0 0 .49915967 9.848249 237.09615)" font-size="17.333334" font-family="Arial" font-weight="bold"><tspan y="41.44" x="346.29536 352.06736 361.70469 371.342 380.97935 391.55268 396.354 403.09669 413.67 418.47135">teach.ru, </tspan></text>
<text xml:space="preserve" transform="matrix(.49915967 0 0 .49915967 9.848249 237.09615)" font-size="17.333334" font-family="ArialMT"><tspan y="41.44" x="425.65919 435.76454 445.40187 454.0685 462.19786 470.8645 480.24183 487.3658 494.9405 502.06449 509.82984 519.10317 526.85116 536.48849 546.1258 555.7631 567.8618 576.5285 583.6525 593.28988 601.95657 610.6232 624.68057 634.3179 642.98458 650.9232 659.74588 669.8512 679.2285 688.2938 696.0418 704.7085 714.0858 721.20986 730.58718 740.2245">&#x0434;&#x043e;&#x0441;&#x0442;&#x0443;&#x043f; &#x043a; &#x043a;&#x043e;&#x0442;&#x043e;&#x0440;&#x043e;&#x043c;&#x0443; &#x043e;&#x0441;&#x0443;&#x0449;&#x0435;&#x0441;&#x0442;&#x0432;&#x043b;&#x044f;&#x0435;&#x0442;&#x0441;&#x044f; &#x043f;&#x043e; </tspan></text>
<text xml:space="preserve" transform="matrix(.49915967 0 0 .49915967 9.848249 237.09615)" font-size="17.333334" font-family="ArialMT"><tspan y="62.239999" x="9 18.377335 28.01467 37.288007 45.036008 54.67334 62.438676 71.71201 81.817348 90.48401">&#x043f;&#x0440;&#x043e;&#x0442;&#x043e;&#x043a;&#x043e;&#x043b;&#x0443; </tspan></text>
<text xml:space="preserve" transform="matrix(.49915967 0 0 .49915967 9.848249 237.09615)" font-size="17.333334" font-family="Arial" font-weight="bold"><tspan y="62.239999" x="100.81007 106.58207 112.35407 122.92741 127.72874">ftp. </tspan></text>
<text xml:space="preserve" transform="matrix(.49915967 0 0 .49915967 9.848249 237.09615)" font-size="17.333334" font-family="ArialMT"><tspan y="62.239999" x="138.09766 150.54299 162.45099 171.82833 182.15898 196.40699 206.04431 215.71631 225.82164 235.45897 245.78963 255.35764 264.99497 275.32563 284.99763 292.93629 304.84428 314.4816 324.0496 333.7216 344.0176 353.65495 362.3216 371.33494 376.13627 386.46693 396.7109 404.6496 414.28694 425.8656 435.5376 443.28559 452.9229 463.25358 472.82157 482.4589 491.6629 504.10826 513.7803 524.11099 533.7483 543.85366 553.49099 563.1283 571.795 582.1257 590.79238 598.731 608.1777 616.11636 625.75369 635.32168 644.88967 654.527 660.4723 670.1096 680.4403 694.6883 704.3256 713.9976 724.10299 733.7403 738.5416">&#x0418;&#x043c;&#x044f; &#x0444;&#x0430;&#x0439;&#x043b;&#x0430; &#x043d;&#x0435; &#x0438;&#x0437;&#x043c;&#x0435;&#x043d;&#x0438;&#x043b;&#x043e;&#x0441;&#x044c;. &#x0423;&#x043a;&#x0430;&#x0436;&#x0438;&#x0442;&#x0435; &#x043d;&#x043e;&#x0432;&#x044b;&#x0439; &#x0430;&#x0434;&#x0440;&#x0435;&#x0441; &#x0443;&#x043a;&#x0430;&#x0437;&#x0430;&#x043d;&#x043d;&#x043e;&#x0433;&#x043e; &#x0444;&#x0430;&#x0439;&#x043b;&#x0430;. </tspan></text>
<text xml:space="preserve" transform="matrix(.49915967 0 0 .49915967 9.848249 237.09615)" font-size="17.333334" font-family="ArialMT"><tspan y="83.03999" x="9 22.173336 31.81067 41.448007 47.75734 59.66534 69.30267 78.870677 86.80934 99.25468 111.83868 121.47601 131.58135 141.21868 150.856 159.52268 169.16 181.744 195.992 205.62934 215.30133 225.40666 235.04399 247.62799 255.56667 265.204 272.96937 282.24269 292.34803 302.02003 311.65736 321.29469 330.308 339.94535 349.51335 361.95869 374.54267 384.45735 394.12934 408.37733 418.01466 427.65199 439.55998 449.23197 461.81596 471.08927 479.02793 491.6119 501.24925 513.83328 523.9386 533.5759 546.1599 555.79727 560.5986 573.18258 583.6519 593.28927 602.66659 612.33859 626.23989 635.91189 643.65988 653.2972 665.88119 675.08517 687.6691 696.94247 704.8811 713.8944 722.9597 730.7077 740.34506">&#x0424;&#x0440;&#x0430;&#x0433;&#x043c;&#x0435;&#x043d;&#x0442;&#x044b; &#x0430;&#x0434;&#x0440;&#x0435;&#x0441;&#x0430; &#x0444;&#x0430;&#x0439;&#x043b;&#x0430; &#x0437;&#x0430;&#x043a;&#x043e;&#x0434;&#x0438;&#x0440;&#x043e;&#x0432;&#x0430;&#x043d;&#x044b; &#x0446;&#x0438;&#x0444;&#x0440;&#x0430;&#x043c;&#x0438; &#x043e;&#x0442; 1 &#x0434;&#x043e; 8. &#x0417;&#x0430;&#x043f;&#x0438;&#x0448;&#x0438;&#x0442;&#x0435; &#x0432; &#x043e;&#x0442;&#x0432;&#x0435;&#x0442;&#x0435; </tspan></text>
<text xml:space="preserve" transform="matrix(.49915967 0 0 .49915967 9.848249 237.09615)" font-size="17.333334" font-family="ArialMT"><tspan y="103.84" x="9 18.377335 28.01467 36.681337 46.786668 56.060007 66.16534 75.80267 84.81601 94.08935 101.83735 110.90269 121.00802 130.02135 139.58936 149.22669 157.89336 165.83203 174.84537 179.6467 188.1227 196.06137 205.73337 214.40004 219.20137 229.11605 238.78804 253.03604 262.67338 267.4747 272.27604 280.04139 289.3147 299.42005 309.09205 318.5387 327.20536 340.20536 354.64405 363.3107 376.3107 381.11204 390.74937 400.8547 410.49205 420.12937 428.79603 433.59736 442.264 450.2027 459.64936 467.588 477.22535 486.79335 496.36134 505.99867 511.94398 521.5813 526.3826 540.6306 550.26797 559.93997 570.0453 579.6826 584.48397 593.6879 598.48928 607.15597 616.22128 624.1599 633.8319 638.63327 651.07858 660.64657 668.39456 678.03189 687.6692 697.2372 706.3025 712.3345">&#x043f;&#x043e;&#x0441;&#x043b;&#x0435;&#x0434;&#x043e;&#x0432;&#x0430;&#x0442;&#x0435;&#x043b;&#x044c;&#x043d;&#x043e;&#x0441;&#x0442;&#x044c; &#x044d;&#x0442;&#x0438;&#x0445; &#x0446;&#x0438;&#x0444;&#x0440;, &#x043a;&#x043e;&#x0434;&#x0438;&#x0440;&#x0443;&#x044e;&#x0449;&#x0443;&#x044e; &#x0430;&#x0434;&#x0440;&#x0435;&#x0441; &#x0443;&#x043a;&#x0430;&#x0437;&#x0430;&#x043d;&#x043d;&#x043e;&#x0433;&#x043e; &#x0444;&#x0430;&#x0439;&#x043b;&#x0430; &#x0432; &#x0441;&#x0435;&#x0442;&#x0438; &#x0418;&#x043d;&#x0442;&#x0435;&#x0440;&#x043d;&#x0435;&#x0442;.</tspan></text>
<path transform="matrix(.0013101304,0,0,.0013101304,0,26.137818)" d="M84272.96 204286.63H202365.96V246518.63H84272.96V204286.63Z" fill="#ffffff" fill-opacity="0"/>
<text xml:space="preserve" transform="matrix(.49915967 0 0 .49915967 110.40856 293.77995)" font-size="17.333334" font-family="ArialMT"><tspan y="20.64" x="9 18.637335 24.409337 29.21067 33.05867 42.696008 47.49734">1) inf.</tspan></text>
<text xml:space="preserve" transform="matrix(.49915967 0 0 .49915967 110.40856 293.77995)" font-size="17.333334" font-family="ArialMT"><tspan y="41.44" x="9 18.637335 24.409337 29.21067 38.848009 48.485345 57.15201">2) docx</tspan></text>
<text xml:space="preserve" transform="matrix(.49915967 0 0 .49915967 110.40856 293.77995)" font-size="17.333334" font-family="ArialMT"><tspan y="62.239999" x="9 18.637335 24.409337 29.21067 34.012006 38.81334">3) ://</tspan></text>
<text xml:space="preserve" transform="matrix(.49915967 0 0 .49915967 110.40856 293.77995)" font-size="17.333334" font-family="ArialMT"><tspan y="83.03999" x="9 18.637335 24.409337 29.21067 34.012006 43.649339 53.286676 61.953344">4) teach</tspan></text>
<text xml:space="preserve" transform="matrix(.49915967 0 0 .49915967 181.81722 293.77995)" font-size="17.333334" font-family="ArialMT"><tspan y="20.64" x="9 18.637335 24.409337 29.21067">5) /</tspan></text>
<text xml:space="preserve" transform="matrix(.49915967 0 0 .49915967 181.81722 293.77995)" font-size="17.333334" font-family="ArialMT"><tspan y="41.44" x="9 18.637335 24.409337 29.21067 34.012006 39.784006">6) .ru</tspan></text>
<text xml:space="preserve" transform="matrix(.49915967 0 0 .49915967 181.81722 293.77995)" font-size="17.333334" font-family="ArialMT"><tspan y="62.239999" x="9 18.637335 24.409337 29.21067 34.012006 38.81334">7) ftp</tspan></text>
<text xml:space="preserve" transform="matrix(.49915967 0 0 .49915967 181.81722 293.77995)" font-size="17.333334" font-family="ArialMT"><tspan y="83.03999" x="9 18.637335 24.409337 29.21067 33.05867 42.696008 47.49734 57.134675 62.906675">8) inform</tspan></text>
<path transform="matrix(.0013101304,0,0,.0013101304,0,26.137818)" d="M7517.94 246518.88H294029.95V289610.89H7517.94Z" fill-opacity="0" fill-rule="evenodd"/>
<text xml:space="preserve" transform="matrix(.49915967 0 0 .49915967 9.849482 349.10966)" font-size="17.333334" font-family="Arial" font-weight="bold"><tspan y="20.64" x="9 18.637335 24.409337 34.04667 38.848005">7-4. </tspan></text>
<text xml:space="preserve" transform="matrix(.49915967 0 0 .49915967 9.849482 349.10966)" font-size="17.333334" font-family="ArialMT"><tspan y="20.64" x="44.055719 57.229055 66.86639 76.53839 86.64372">&#x0424;&#x0430;&#x0439;&#x043b; </tspan></text>
<text xml:space="preserve" transform="matrix(.49915967 0 0 .49915967 9.849482 349.10966)" font-size="17.333334" font-family="Arial" font-weight="bold"><tspan y="20.64" x="91.8537 96.65503 107.22836 113.00037 117.8017 124.544368 134.1817 140.92436">inf.rar </tspan></text>
<text xml:space="preserve" transform="matrix(.49915967 0 0 .49915967 9.849482 349.10966)" font-size="17.333334" font-family="ArialMT"><tspan y="20.64" x="146.1582 156.07288 168.5182 178.62354 183.8062 193.0102 205.45552 215.75153 225.19818 236.77686 246.41419 255.98218 261.16487 270.36888 275.55155 287.9969 297.56489 305.31288 314.9502 324.58753 334.15553 343.22087 350.96885 360.60618 365.78886 375.16618 384.8035 389.98619 399.6235 409.72886 419.36619 429.0035 437.67018 446.33683 451.5195 461.15684 465.95817 470.7595 480.39683 485.19816 489.99949 494.8008 504.43815 508.28614 516.9528 531.3915 541.0288 544.87686 554.51419 564.1515 573.7888 578.59017 582.4382 592.0755 596.87686 606.51419 611.3155 615.1635 624.80087 629.6022 634.4035 640.1755 649.8128 654.6315 659.4328 664.6155 677.0608 686.3341 694.0821 703.7194 715.62747 720.8101 730.3781 740.01547">&#x0431;&#x044b;&#x043b; &#x0432;&#x044b;&#x043b;&#x043e;&#x0436;&#x0435;&#x043d; &#x0432; &#x0418;&#x043d;&#x0442;&#x0435;&#x0440;&#x043d;&#x0435;&#x0442;&#x0435; &#x043f;&#x043e; &#x0430;&#x0434;&#x0440;&#x0435;&#x0441;&#x0443; http://olympiada.info/inf.rar. &#x041f;&#x043e;&#x0442;&#x043e;&#x043c; &#x043d;&#x0430; </tspan></text>
<text xml:space="preserve" transform="matrix(.49915967 0 0 .49915967 9.849482 349.10966)" font-size="17.333334" font-family="ArialMT"><tspan y="41.44" x="9 17.666668 27.304003 36.976007 44.724008 54.361345 61.24268 70.10001 79.546688 87.12135 97.226688 106.86402 116.96935 126.64136 133.52269 142.90003 152.17336 162.27869 170.21735 179.49068 187.23868 196.876 207.17201 216.80934 223.11869">&#x0441;&#x0430;&#x0439;&#x0442;&#x0435; &#x0441;&#x043e;&#x0437;&#x0434;&#x0430;&#x043b;&#x0438; &#x043f;&#x043e;&#x0434;&#x043a;&#x0430;&#x0442;&#x0430;&#x043b;&#x043e;&#x0433; </tspan></text>
<text xml:space="preserve" transform="matrix(.49915967 0 0 .49915967 9.849482 349.10966)" font-size="17.333334" font-family="Arial" font-weight="bold"><tspan y="41.44" x="230.07791 235.84992 245.48725 255.12458 260.89659 270.5339">tests </tspan></text>
<text xml:space="preserve" transform="matrix(.49915967 0 0 .49915967 9.849482 349.10966)" font-size="17.333334" font-family="ArialMT"><tspan y="41.44" x="277.43156 287.10356 293.98487 308.23286 317.87019 327.54219 337.64753 344.52885 353.90617 363.5435 373.18083 382.81816 394.72615 404.36347 413.03013 420.96879 430.64079 440.74613 450.41813 457.29945 466.50346 473.38478 481.86076 489.60874 498.88206 506.8207 513.702 523.07937 532.35269 542.458 550.39669 559.67 567.41799 577.0553 587.3513 596.98867 601.1833 605.9846 612.86599 623.1099 631.0486 640.6859 652.2646 661.9366 669.6846 679.3219 686.20327 695.77127 705.40859 714.61257 727.05789 736.72988">&#x0438; &#x0444;&#x0430;&#x0439;&#x043b; &#x043f;&#x0435;&#x0440;&#x0435;&#x043c;&#x0435;&#x0441;&#x0442;&#x0438;&#x043b;&#x0438; &#x0432; &#x044d;&#x0442;&#x043e;&#x0442; &#x043f;&#x043e;&#x0434;&#x043a;&#x0430;&#x0442;&#x0430;&#x043b;&#x043e;&#x0433;. &#x0423;&#x043a;&#x0430;&#x0436;&#x0438;&#x0442;&#x0435; &#x043d;&#x043e;&#x0432;&#x044b;&#x0439; </tspan></text>
<text xml:space="preserve" transform="matrix(.49915967 0 0 .49915967 9.849482 349.10966)" font-size="17.333334" font-family="ArialMT"><tspan y="62.239999" x="9 18.637335 28.742669 38.380006 48.01734 56.68401 64.674678 73.34134 81.28001 90.72668 98.665348 108.30268 117.87068 127.43868 137.07602 143.02135 152.65868 160.64934 174.89734 184.53467 194.20667 204.312 213.94933 218.75066 226.74132 239.91466 249.55199 259.18934 265.49867 277.40666 287.04399 296.61198 304.55064 316.99598 324.98664 334.62397 344.7293 354.36665 364.00398 372.67063 382.30796 390.2986 404.54664 414.18397 423.85597 433.9613 443.59864 451.5893 459.52796 469.16529 476.93064 486.20396 496.3093 505.9813 515.61868 525.256 534.2693 543.9066 553.4746 565.9199 573.9106 583.82528 593.49728 607.74526 617.38259 627.0199 638.9279 648.5999 656.5906 665.8639 673.80258 681.7932 691.43057 699.4212 709.52658 719.1639 727.15457 736.7919 741.5932">&#x0430;&#x0434;&#x0440;&#x0435;&#x0441; &#x0443;&#x043a;&#x0430;&#x0437;&#x0430;&#x043d;&#x043d;&#x043e;&#x0433;&#x043e; &#x0444;&#x0430;&#x0439;&#x043b;&#x0430;. &#x0424;&#x0440;&#x0430;&#x0433;&#x043c;&#x0435;&#x043d;&#x0442;&#x044b; &#x0430;&#x0434;&#x0440;&#x0435;&#x0441;&#x0430; &#x0444;&#x0430;&#x0439;&#x043b;&#x0430; &#x0437;&#x0430;&#x043a;&#x043e;&#x0434;&#x0438;&#x0440;&#x043e;&#x0432;&#x0430;&#x043d;&#x044b; &#x0446;&#x0438;&#x0444;&#x0440;&#x0430;&#x043c;&#x0438; &#x043e;&#x0442; 1 &#x0434;&#x043e; 8. </tspan></text>
<text xml:space="preserve" transform="matrix(.49915967 0 0 .49915967 9.849482 349.10966)" font-size="17.333334" font-family="ArialMT"><tspan y="83.03999" x="9 19.469334 29.106669 38.484 48.156003 62.057336 71.72934 79.47734 89.11468 94.21068 103.41468 108.51068 117.78402 125.72269 134.73601 143.80133 151.54933 161.18666 166.28266 175.65999 185.29732 193.96399 204.06932 213.34265 223.44799 233.08531 242.09864 251.37197 259.11997 268.1853 278.29066 287.304 296.87199 306.5093 315.17597 323.11463 332.12797 337.22398 345.69996 353.6386 363.3106 371.97727 377.07328 386.98796 396.65995 410.90797 420.5453 425.34663 430.44264 438.20799 447.4813 457.58665 467.25865 476.7053 485.37196 498.37196 512.8106 521.4773 534.4773 539.5733 549.21066 559.316 568.9533 578.59066 587.2573 592.35336 601.02 608.9587 618.40536 626.344 635.9813 645.5493 655.1173 664.75466 670.69998 680.3373 685.4333 699.6813 709.3186 718.9906 729.09597 738.7333">&#x0417;&#x0430;&#x043f;&#x0438;&#x0448;&#x0438;&#x0442;&#x0435; &#x0432; &#x043e;&#x0442;&#x0432;&#x0435;&#x0442;&#x0435; &#x043f;&#x043e;&#x0441;&#x043b;&#x0435;&#x0434;&#x043e;&#x0432;&#x0430;&#x0442;&#x0435;&#x043b;&#x044c;&#x043d;&#x043e;&#x0441;&#x0442;&#x044c; &#x044d;&#x0442;&#x0438;&#x0445; &#x0446;&#x0438;&#x0444;&#x0440;, &#x043a;&#x043e;&#x0434;&#x0438;&#x0440;&#x0443;&#x044e;&#x0449;&#x0443;&#x044e; &#x0430;&#x0434;&#x0440;&#x0435;&#x0441; &#x0443;&#x043a;&#x0430;&#x0437;&#x0430;&#x043d;&#x043d;&#x043e;&#x0433;&#x043e; &#x0444;&#x0430;&#x0439;&#x043b;&#x0430; </tspan></text>
<text xml:space="preserve" transform="matrix(.49915967 0 0 .49915967 9.849482 349.10966)" font-size="17.333334" font-family="ArialMT"><tspan y="103.84" x="9 18.204 23.005335 31.672 40.737337 48.676004 58.348005 63.149339 75.59467 85.162677 92.910678 102.54801 112.18535 121.75335 130.81868 136.8507">&#x0432; &#x0441;&#x0435;&#x0442;&#x0438; &#x0418;&#x043d;&#x0442;&#x0435;&#x0440;&#x043d;&#x0435;&#x0442;.</tspan></text>
<path transform="matrix(.0013101304,0,0,.0013101304,0,26.137818)" d="M73504.46 289610.89H191597.46V331842.89H73504.46V289610.89Z" fill="#ffffff" fill-opacity="0"/>
<text xml:space="preserve" transform="matrix(.49915967 0 0 .49915967 96.30042 405.56584)" font-size="17.333334" font-family="ArialMT"><tspan y="20.64" x="9 18.637335 24.409337 29.21067 33.05867 42.696008 47.49734">1) inf.</tspan></text>
<text xml:space="preserve" transform="matrix(.49915967 0 0 .49915967 96.30042 405.56584)" font-size="17.333334" font-family="ArialMT"><tspan y="41.44" x="9 18.637335 24.409337 29.21067 34.012006 43.649339 52.316007 57.11734">2) tests</tspan></text>
<text xml:space="preserve" transform="matrix(.49915967 0 0 .49915967 96.30042 405.56584)" font-size="17.333334" font-family="ArialMT"><tspan y="62.239999" x="9 18.637335 24.409337 29.21067">3) /</tspan></text>
<text xml:space="preserve" transform="matrix(.49915967 0 0 .49915967 96.30042 405.56584)" font-size="17.333334" font-family="ArialMT"><tspan y="83.03999" x="9 18.637335 24.409337 29.21067 34.98267 44.620004">4) rar</tspan></text>
<text xml:space="preserve" transform="matrix(.49915967 0 0 .49915967 167.70909 405.56584)" font-size="17.333334" font-family="ArialMT"><tspan y="20.64" x="9 18.637335 24.409337 29.21067 38.848009 43.64934 48.450677">5) http</tspan></text>
<text xml:space="preserve" transform="matrix(.49915967 0 0 .49915967 167.70909 405.56584)" font-size="17.333334" font-family="ArialMT"><tspan y="41.44" x="9 18.637335 24.409337 29.21067 38.848009 42.696008 51.362676 65.801349 75.43868 79.28668 88.92402 98.561359 108.19869">6) olympiada.</tspan></text>
<text xml:space="preserve" transform="matrix(.49915967 0 0 .49915967 167.70909 405.56584)" font-size="17.333334" font-family="ArialMT"><tspan y="62.239999" x="9 18.637335 24.409337 29.21067 34.012006 38.81334">7) ://</tspan></text>
<text xml:space="preserve" transform="matrix(.49915967 0 0 .49915967 167.70909 405.56584)" font-size="17.333334" font-family="ArialMT"><tspan y="83.03999" x="9 18.637335 24.409337 29.21067 33.05867 42.696008 47.49734">8) info</tspan></text>
<path transform="matrix(.0013101304,0,0,.0013101304,0,26.137818)" d="M50726.5 363807.89H100754.5V374595.89H50726.5Z" fill="#eeeeee" fill-rule="evenodd"/>
<path transform="matrix(.0013101304,0,0,.0013101304,0,26.137818)" stroke-width="381" stroke-linecap="butt" stroke-linejoin="round" fill="none" stroke="#595959" d="M50726.5 363807.89H100754.5V374595.89H50726.5Z"/>
<text xml:space="preserve" transform="matrix(.49915967 0 0 .49915967 66.45832 502.77354)" font-size="16" font-family="ArialMT"><tspan y="20.017479" x="61.204324">1</tspan></text>
<path transform="matrix(.0013101304,0,0,.0013101304,0,26.137818)" d="M50726.5 374595.89H100754.5V385383.89H50726.5Z" fill="#eeeeee" fill-rule="evenodd"/>
<path transform="matrix(.0013101304,0,0,.0013101304,0,26.137818)" stroke-width="381" stroke-linecap="butt" stroke-linejoin="round" fill="none" stroke="#595959" d="M50726.5 374595.89H100754.5V385383.89H50726.5Z"/>
<path transform="matrix(.0013101304,0,0,.0013101304,0,26.137818)" d="M100748.06 363807.89H150776.07V374595.89H100748.06Z" fill="#eeeeee" fill-rule="evenodd"/>
<path transform="matrix(.0013101304,0,0,.0013101304,0,26.137818)" stroke-width="381" stroke-linecap="butt" stroke-linejoin="round" fill="none" stroke="#595959" d="M100748.06 363807.89H150776.07V374595.89H100748.06Z"/>
<text xml:space="preserve" transform="matrix(.49915967 0 0 .49915967 131.99309 502.77354)" font-size="16" font-family="ArialMT"><tspan y="20.017479" x="61.204324">2</tspan></text>
<path transform="matrix(.0013101304,0,0,.0013101304,0,26.137818)" d="M100748.06 374595.89H150776.07V385383.89H100748.06Z" fill="#eeeeee" fill-rule="evenodd"/>
<path transform="matrix(.0013101304,0,0,.0013101304,0,26.137818)" stroke-width="381" stroke-linecap="butt" stroke-linejoin="round" fill="none" stroke="#595959" d="M100748.06 374595.89H150776.07V385383.89H100748.06Z"/>
<path transform="matrix(.0013101304,0,0,.0013101304,0,26.137818)" d="M150769.63 363807.89H200797.63V374595.89H150769.63Z" fill="#eeeeee" fill-rule="evenodd"/>
<path transform="matrix(.0013101304,0,0,.0013101304,0,26.137818)" stroke-width="381" stroke-linecap="butt" stroke-linejoin="round" fill="none" stroke="#595959" d="M150769.63 363807.89H200797.63V374595.89H150769.63Z"/>
<text xml:space="preserve" transform="matrix(.49915967 0 0 .49915967 197.52787 502.77354)" font-size="16" font-family="ArialMT"><tspan y="20.017479" x="61.204324">3</tspan></text>
<path transform="matrix(.0013101304,0,0,.0013101304,0,26.137818)" d="M150769.63 374595.89H200797.63V385383.89H150769.63Z" fill="#eeeeee" fill-rule="evenodd"/>
<path transform="matrix(.0013101304,0,0,.0013101304,0,26.137818)" stroke-width="381" stroke-linecap="butt" stroke-linejoin="round" fill="none" stroke="#595959" d="M150769.63 374595.89H200797.63V385383.89H150769.63Z"/>
<path transform="matrix(.0013101304,0,0,.0013101304,0,26.137818)" d="M200791.19 363807.89H250819.19V374595.89H200791.19Z" fill="#eeeeee" fill-rule="evenodd"/>
<path transform="matrix(.0013101304,0,0,.0013101304,0,26.137818)" stroke-width="381" stroke-linecap="butt" stroke-linejoin="round" fill="none" stroke="#595959" d="M200791.19 363807.89H250819.19V374595.89H200791.19Z"/>
<text xml:space="preserve" transform="matrix(.49915967 0 0 .49915967 263.06263 502.77354)" font-size="16" font-family="ArialMT"><tspan y="20.017479" x="61.204324">4</tspan></text>
<path transform="matrix(.0013101304,0,0,.0013101304,0,26.137818)" d="M200791.19 374595.89H250819.19V385383.89H200791.19Z" fill="#eeeeee" fill-rule="evenodd"/>
<path transform="matrix(.0013101304,0,0,.0013101304,0,26.137818)" stroke-width="381" stroke-linecap="butt" stroke-linejoin="round" fill="none" stroke="#595959" d="M200791.19 374595.89H250819.19V385383.89H200791.19Z"/>
<path transform="matrix(.0013101304,0,0,.0013101304,0,26.137818)" d="M50726.787 353019.8H79310.78V363807.8H50726.787Z" fill="#eeeeee" fill-rule="evenodd"/>
<path transform="matrix(.0013101304,0,0,.0013101304,0,26.137818)" stroke-width="381" stroke-linecap="butt" stroke-linejoin="round" fill="none" stroke="#595959" d="M50726.787 353019.8H79310.78V363807.8H50726.787Z"/>
<text xml:space="preserve" transform="matrix(.49915967 0 0 .49915967 66.458698 488.6398)" font-size="16" font-family="ArialMT"><tspan y="20.017479" x="17.234467 29.394467 40.88247 53.31447">&#x0424;&#x0418;&#x041e;:</tspan></text>
<path transform="matrix(.0013101304,0,0,.0013101304,0,26.137818)" d="M79312.089 353019.5H250816.08V363807.5H79312.089Z" fill="#eeeeee" fill-rule="evenodd"/>
<path transform="matrix(.0013101304,0,0,.0013101304,0,26.137818)" stroke-width="381" stroke-linecap="butt" stroke-linejoin="round" fill="none" stroke="#595959" d="M79312.089 353019.5H250816.08V363807.5H79312.089Z"/>
</g>
</g>
<g clip-path="url(#clip_16)">
<g clip-path="url(#clip_17)">
<path transform="matrix(.0013101304,0,0,.0013101304,396,26.137818)" d="M0 0H302400V427680H0Z" fill="#ffffff" fill-rule="evenodd"/>
<path transform="matrix(.0013101304,0,0,.0013101304,396,26.137818)" d="M7469.9938 10028H294930V62960H7469.9938Z" fill-opacity="0" fill-rule="evenodd"/>
<text xml:space="preserve" transform="matrix(.49915967 0 0 .49915967 405.78666 39.275804)" font-size="17.333334" font-family="ArialMT"><tspan y="20.64" x="9 20.544 30.822669 40.2 48.138669 60.584005 68.349338 77.98667 88.265338 96.204 105.84134 115.21867 124.85601 134.49335 143.3507 152.98802 162.19202 172.47069 181.84803 191.48535 201.15735 209.82402 217.58936 227.22669 236.24 245.87734 251.82268 261.46003 271.73869 280.40534 290.04267 299.68 308.69334 318.33067 327.968 337.60533 347.88398 357.98933 368.09468 377.472 387.75065 397.38798 407.30265 416.7493 424.68797 434.25596 443.52928 452.5426 462.17994 471.74794 481.41993 490.79725 501.0759 511.37193 521.0093 527.3186 536.9906 546.0039 555.64126 564.3079 572.07327 581.7106 591.38259 601.66128 611.2986 620.6759 630.31326 639.95059 649.5879 659.50259 669.17459 678.84658 689.12527 698.7626 711.2079 722.57858 735.02389 744.6612">&#x0412; &#x044f;&#x0437;&#x044b;&#x043a;&#x0435; &#x0437;&#x0430;&#x043f;&#x0440;&#x043e;&#x0441;&#x043e;&#x0432; &#x043f;&#x043e;&#x0438;&#x0441;&#x043a;&#x043e;&#x0432;&#x043e;&#x0433;&#x043e; &#x0441;&#x0435;&#x0440;&#x0432;&#x0435;&#x0440;&#x0430; &#x0434;&#x043b;&#x044f; &#x043e;&#x0431;&#x043e;&#x0437;&#x043d;&#x0430;&#x0447;&#x0435;&#x043d;&#x0438;&#x044f; &#x043b;&#x043e;&#x0433;&#x0438;&#x0447;&#x0435;&#x0441;&#x043a;&#x043e;&#x0439; &#x043e;&#x043f;&#x0435;&#x0440;&#x0430;&#x0446;&#x0438;&#x0438; &#x00ab;&#x0418;&#x041b;&#x0418;&#x00bb; </tspan></text>
<text xml:space="preserve" transform="matrix(.49915967 0 0 .49915967 405.78666 39.275804)" font-size="17.333334" font-family="ArialMT"><tspan y="41.44" x="9 18.672 27.338669 36.716005 45.98934 56.094675 65.10801 72.85601 81.33201 90.39735 98.14535 106.81201 116.18935 120.99068 129.65735 139.32935 151.23735 160.25067 169.524 179.62934 184.43067 194.068 198.55733 208.19466 212.99599 217.79732 227.43465 232.23598 242.34131 252.44664 261.82398 266.6253 276.26264 286.1773 295.62397 303.56263 313.1306 322.40394 331.41728 341.0546 350.6226 360.2946 369.6719 374.47325 384.76927 394.4066 400.7159 410.3879 419.40126 429.03858 437.70524 445.47059 455.1079 464.7799 469.58125 479.21858 488.5959 498.23323 507.87055 517.5079 527.42257 537.09457 546.76657 551.5679 561.2052 573.6505 583.28787 588.0892 597.7265 602.52786 611.1945 620.8665 632.77456 641.78787 651.06118 661.1665 665.96786 675.60519 687.1492 696.7865">&#x0438;&#x0441;&#x043f;&#x043e;&#x043b;&#x044c;&#x0437;&#x0443;&#x0435;&#x0442;&#x0441;&#x044f; &#x0441;&#x0438;&#x043c;&#x0432;&#x043e;&#x043b; &#x00ab;|&#x00bb;, &#x0430; &#x0434;&#x043b;&#x044f; &#x043e;&#x0431;&#x043e;&#x0437;&#x043d;&#x0430;&#x0447;&#x0435;&#x043d;&#x0438;&#x044f; &#x043b;&#x043e;&#x0433;&#x0438;&#x0447;&#x0435;&#x0441;&#x043a;&#x043e;&#x0439; &#x043e;&#x043f;&#x0435;&#x0440;&#x0430;&#x0446;&#x0438;&#x0438; &#x00ab;&#x0418;&#x00bb; &#x2013; &#x0441;&#x0438;&#x043c;&#x0432;&#x043e;&#x043b; &#x00ab;&#x0026;&#x00bb;.</tspan></text>
<text xml:space="preserve" transform="matrix(.49915967 0 0 .49915967 405.78666 39.275804)" font-size="17.333334" font-family="ArialMT"><tspan y="62.239999" x="9 20.544 31.256003 39.004007 48.641344 57.793344 67.898677 77.57068 87.29468 96.932018 107.64401 117.02135 126.65868 136.33069 145.34401 154.61734 164.72267 174.36 183.92801 196.37334 207.08533 215.024 224.66133 234.03867 243.676 253.31333 261.97999 274.42533 285.13734 294.80934 305.52134 313.28669 322.56 332.66535 342.33735 351.35069 360.988 369.65467 377.59333 386.60667 396.244 406.956 416.524 426.16133 435.8333 445.93867 455.576 465.14399 474.71199 487.15733 495.82398 506.53599 515.9133 525.55068 536.26266 545.8306 555.5026 567.41067 578.1226 586.7893 594.72799 604.3653 614.0026 623.5706 633.2426 643.1573 653.86929 663.43728 673.0746 680.8399 690.1132 697.8612 707.49856 717.13589 726.7732 732.7185 742.35586">&#x0412; &#x0442;&#x0430;&#x0431;&#x043b;&#x0438;&#x0446;&#x0435; &#x043f;&#x0440;&#x0438;&#x0432;&#x0435;&#x0434;&#x0435;&#x043d;&#x044b; &#x0437;&#x0430;&#x043f;&#x0440;&#x043e;&#x0441;&#x044b; &#x0438; &#x043a;&#x043e;&#x043b;&#x0438;&#x0447;&#x0435;&#x0441;&#x0442;&#x0432;&#x043e; &#x043d;&#x0430;&#x0439;&#x0434;&#x0435;&#x043d;&#x043d;&#x044b;&#x0445; &#x043f;&#x043e; &#x043d;&#x0438;&#x043c; &#x0441;&#x0442;&#x0440;&#x0430;&#x043d;&#x0438;&#x0446; &#x043d;&#x0435;&#x043a;&#x043e;&#x0442;&#x043e;&#x0440;&#x043e;&#x0433;&#x043e; </tspan></text>
<text xml:space="preserve" transform="matrix(.49915967 0 0 .49915967 405.78666 39.275804)" font-size="17.333334" font-family="ArialMT"><tspan y="83.03999" x="9 17.666668 27.304003 33.613336 45.521337 55.15867 64.72667 72.47467 82.11201 98.30134 106.968 116.03334 123.97201 133.64402 149.83335 162.27867 171.84668 179.59468 189.23201 198.86934 208.43735 217.50267 223.53469 228.33602 244.52535 256.84934 265.86268 275.53468 283.28266 292.91999 301.98533 309.7333 318.39997 327.77729 332.5786 348.76795 357.78129 365.52928 375.1666 391.35594 400.36927 409.03593 418.67326 434.86259 442.80125 452.43858 461.8159 471.45323 481.09056 489.7572 502.20256 518.39187 527.5958 540.04116 549.41848 558.6918 568.7971 578.3651 587.74246 597.8478 607.5198 616.18649 625.19979 641.3891 650.7664 660.40377 670.0411 677.8064 685.74508 695.41708 704.43038 714.0677 722.7344 730.309 739.981">&#x0441;&#x0435;&#x0433;&#x043c;&#x0435;&#x043d;&#x0442;&#x0430; &#x0441;&#x0435;&#x0442;&#x0438; &#x0418;&#x043d;&#x0442;&#x0435;&#x0440;&#x043d;&#x0435;&#x0442;. &#x0421;&#x0447;&#x0438;&#x0442;&#x0430;&#x0435;&#x0442;&#x0441;&#x044f;, &#x0447;&#x0442;&#x043e; &#x0432;&#x0441;&#x0435; &#x0437;&#x0430;&#x043f;&#x0440;&#x043e;&#x0441;&#x044b; &#x0432;&#x044b;&#x043f;&#x043e;&#x043b;&#x043d;&#x044f;&#x043b;&#x0438;&#x0441;&#x044c; &#x043f;&#x0440;&#x0430;&#x043a;&#x0442;&#x0438;&#x0447;&#x0435;&#x0441;&#x043a;&#x0438; </tspan></text>
<text xml:space="preserve" transform="matrix(.49915967 0 0 .49915967 405.78666 39.275804)" font-size="17.333334" font-family="ArialMT"><tspan y="103.84" x="9 18.273335 28.378668 37.94667 47.584009 56.78801 66.42535 76.06268 87.97069 97.608028 107.176029 116.744029 126.38136 131.1827 137.54402 145.29203 154.92935 162.50402 168.86534 177.87868 185.62668 195.264 201.62534 211.19333 220.83066 230.74533 240.38266 250.01999 256.38133 265.04798 272.98664 282.62397 292.2613 301.82929 311.50129 321.41596 326.2173 332.5786 341.43595 350.70927 360.8146 370.45195 380.08927 391.66795 401.30528 415.55329 425.22529 433.89195 440.25328 449.2666 457.93327 467.5706 473.93193 483.6039 492.27058 500.03593 509.67326 521.58126 534.02658 543.6639 550.0252 558.6919 568.9879 578.62527 587.63858 597.2759 602.0772 608.43856 618.00656 627.64389 634.0052 643.6772 651.61587 663.52389 673.1612 682.7292 692.1065 702.21188 710.87857 720.25588 726.6172 734.55587 744.1932">&#x043e;&#x0434;&#x043d;&#x043e;&#x0432;&#x0440;&#x0435;&#x043c;&#x0435;&#x043d;&#x043d;&#x043e;, &#x0442;&#x0430;&#x043a; &#x0447;&#x0442;&#x043e; &#x043d;&#x0430;&#x0431;&#x043e;&#x0440; &#x0441;&#x0442;&#x0440;&#x0430;&#x043d;&#x0438;&#x0446;, &#x0441;&#x043e;&#x0434;&#x0435;&#x0440;&#x0436;&#x0430;&#x0449;&#x0438;&#x0445; &#x0432;&#x0441;&#x0435; &#x0438;&#x0441;&#x043a;&#x043e;&#x043c;&#x044b;&#x0435; &#x0441;&#x043b;&#x043e;&#x0432;&#x0430;, &#x043d;&#x0435; &#x0438;&#x0437;&#x043c;&#x0435;&#x043d;&#x044f;&#x043b;&#x0441;&#x044f; &#x0437;&#x0430; </tspan></text>
<text xml:space="preserve" transform="matrix(.49915967 0 0 .49915967 405.78666 39.275804)" font-size="17.333334" font-family="ArialMT"><tspan y="124.64" x="9 18.204 27.841336 37.47867 49.38667 58.764005 63.56534 72.76934 85.214679 94.59201 103.86535 113.97068 123.53868 133.17601 142.74402 152.41602 161.79335 166.59468 174.53336 184.17069 193.54802 203.18535 212.82268 221.68003 231.31735 240.52135">&#x0432;&#x0440;&#x0435;&#x043c;&#x044f; &#x0432;&#x044b;&#x043f;&#x043e;&#x043b;&#x043d;&#x0435;&#x043d;&#x0438;&#x044f; &#x0437;&#x0430;&#x043f;&#x0440;&#x043e;&#x0441;&#x043e;&#x0432;:</tspan></text>
<path transform="matrix(.0013101304,0,0,.0013101304,396,26.137818)" d="M48949.12 74489.6H150057.13V83385.6H48949.12V74489.6Z" fill="#ffffff"/>
<path transform="matrix(.0013101304,0,0,.0013101304,396,26.137818)" d="M150057.13 74489.6H253451.13V83385.6H150057.13V74489.6Z" fill="#ffffff"/>
<path transform="matrix(.0013101304,0,0,.0013101304,396,26.137818)" d="M48949.12 83385.6H150057.13V92681.6H48949.12V83385.6Z" fill="#ffffff"/>
<path transform="matrix(.0013101304,0,0,.0013101304,396,26.137818)" d="M150057.13 83385.6H253451.13V92681.6H150057.13V83385.6Z" fill="#ffffff"/>
<path transform="matrix(.0013101304,0,0,.0013101304,396,26.137818)" d="M48949.12 92681.6H150057.13V101977.6H48949.12V92681.6Z" fill="#ffffff"/>
<path transform="matrix(.0013101304,0,0,.0013101304,396,26.137818)" d="M150057.13 92681.6H253451.13V101977.6H150057.13V92681.6Z" fill="#ffffff"/>
<path transform="matrix(.0013101304,0,0,.0013101304,396,26.137818)" d="M48949.12 101977.6H150057.13V111273.6H48949.12V101977.6Z" fill="#ffffff"/>
<path transform="matrix(.0013101304,0,0,.0013101304,396,26.137818)" d="M150057.13 101977.6H253451.13V111273.6H150057.13V101977.6Z" fill="#ffffff"/>
<path transform="matrix(.0013101304,0,0,.0013101304,396,26.137818)" stroke-width="508" stroke-linecap="butt" stroke-miterlimit="10" stroke-linejoin="miter" fill="none" stroke="#000000" d="M48949.12 74235.6V111527.6"/>
<path transform="matrix(.0013101304,0,0,.0013101304,396,26.137818)" stroke-width="508" stroke-linecap="butt" stroke-miterlimit="10" stroke-linejoin="miter" fill="none" stroke="#000000" d="M150057.13 74235.6V111527.6"/>
<path transform="matrix(.0013101304,0,0,.0013101304,396,26.137818)" stroke-width="508" stroke-linecap="butt" stroke-miterlimit="10" stroke-linejoin="miter" fill="none" stroke="#000000" d="M253451.13 74235.6V111527.6"/>
<path transform="matrix(.0013101304,0,0,.0013101304,396,26.137818)" stroke-width="508" stroke-linecap="butt" stroke-miterlimit="10" stroke-linejoin="miter" fill="none" stroke="#000000" d="M48695.12 74489.6H253705.13"/>
<path transform="matrix(.0013101304,0,0,.0013101304,396,26.137818)" stroke-width="508" stroke-linecap="butt" stroke-miterlimit="10" stroke-linejoin="miter" fill="none" stroke="#000000" d="M48695.12 83385.6H253705.13"/>
<path transform="matrix(.0013101304,0,0,.0013101304,396,26.137818)" stroke-width="508" stroke-linecap="butt" stroke-miterlimit="10" stroke-linejoin="miter" fill="none" stroke="#000000" d="M48695.12 92681.6H253705.13"/>
<path transform="matrix(.0013101304,0,0,.0013101304,396,26.137818)" stroke-width="508" stroke-linecap="butt" stroke-miterlimit="10" stroke-linejoin="miter" fill="none" stroke="#000000" d="M48695.12 101977.6H253705.13"/>
<path transform="matrix(.0013101304,0,0,.0013101304,396,26.137818)" stroke-width="508" stroke-linecap="butt" stroke-miterlimit="10" stroke-linejoin="miter" fill="none" stroke="#000000" d="M48695.12 111273.6H253705.13"/>
<text xml:space="preserve" transform="matrix(.49915967 0 0 .49915967 460.12974 123.728908)" font-size="17.333334" font-family="Arial" font-weight="bold"><tspan y="16.64" x="101.91926 112.76993 122.407268 132.8766 143.44994 153.79795">&#x0417;&#x0430;&#x043f;&#x0440;&#x043e;&#x0441;</tspan></text>
<text xml:space="preserve" transform="matrix(.49915967 0 0 .49915967 592.59439 123.728908)" font-size="17.333334" font-family="Arial" font-weight="bold"><tspan y="16.64" x="8.882591 21.397259 31.034594 41.67726 52.666597 62.303934 72.77327 83.3466 88.147937 97.78527 106.26127 116.8346 126.47194 136.94127 147.58394 158.22661 163.02794 168.79994 179.44261 184.24394 192.71994 207.52262 217.15995 227.26528 237.3186 246.95594 256.59327">&#x041d;&#x0430;&#x0439;&#x0434;&#x0435;&#x043d;&#x043e; &#x0441;&#x0442;&#x0440;&#x0430;&#x043d;&#x0438;&#x0446; (&#x0432; &#x0442;&#x044b;&#x0441;&#x044f;&#x0447;&#x0430;&#x0445;)</tspan></text>
<text xml:space="preserve" transform="matrix(.49915967 0 0 .49915967 460.12974 135.38382)" font-size="17.333334" font-family="Arial" font-style="italic"><tspan y="16.64" x="86.520259 98.064258 107.33759 117.09626 125.277599">&#x0412;&#x043e;&#x043b;&#x043a; </tspan></text>
<text xml:space="preserve" transform="matrix(.49915967 0 0 .49915967 460.12974 135.38382)" font-size="17.333334" font-family="ArialMT"><tspan y="16.64" x="130.10279 134.59212">| </tspan></text>
<text xml:space="preserve" transform="matrix(.49915967 0 0 .49915967 460.12974 135.38382)" font-size="17.333334" font-family="Arial" font-style="italic"><tspan y="16.64" x="139.41834 150.04367 159.681 168.937">&#x0417;&#x0430;&#x044f;&#x0446;</tspan></text>
<text xml:space="preserve" transform="matrix(.49915967 0 0 .49915967 592.59439 135.38382)" font-size="17.333334" font-family="ArialMT"><tspan y="16.64" x="121.23204 130.86937 140.5067">780</tspan></text>
<text xml:space="preserve" transform="matrix(.49915967 0 0 .49915967 460.12974 147.56279)" font-size="17.333334" font-family="Arial" font-style="italic"><tspan y="16.64" x="113.303569 124.847568 134.1209 143.87957">&#x0412;&#x043e;&#x043b;&#x043a;</tspan></text>
<text xml:space="preserve" transform="matrix(.49915967 0 0 .49915967 592.59439 147.56279)" font-size="17.333334" font-family="ArialMT"><tspan y="16.64" x="121.23204 130.86937 140.5067">260</tspan></text>
<text xml:space="preserve" transform="matrix(.49915967 0 0 .49915967 460.12974 159.74176)" font-size="17.333334" font-family="Arial" font-style="italic"><tspan y="16.64" x="82.99202 94.53602 103.80936 113.56802 121.74936 126.55069 138.0947 142.89603 153.52136 163.15869 172.41469">&#x0412;&#x043e;&#x043b;&#x043a; &#x0026; &#x0417;&#x0430;&#x044f;&#x0446;</tspan></text>
<text xml:space="preserve" transform="matrix(.49915967 0 0 .49915967 592.59439 159.74176)" font-size="17.333334" font-family="ArialMT"><tspan y="16.64" x="126.05058 135.68791">50</tspan></text>
<path transform="matrix(.0013101304,0,0,.0013101304,396,26.137818)" d="M7469.9938 60942H294930V74490H7469.9938Z" fill-opacity="0" fill-rule="evenodd"/>
<text xml:space="preserve" transform="matrix(.49915967 0 0 .49915967 405.78666 105.97978)" font-size="17.333334" font-family="Arial" font-weight="bold"><tspan y="20.64" x="9 18.637335 24.409337 34.04667">8-1.</tspan></text>
<text xml:space="preserve" transform="matrix(.49915967 0 0 .49915967 405.78666 105.97978)" font-size="17.333334" font-family="ArialMT"><tspan y="20.64" x="38.858888 43.66022 53.748224 63.38556 71.150897 80.78823 90.42557 95.2269 102.99223 112.26557 122.3709 132.04291 141.05625 150.69358 159.36025 167.29892 176.31224 185.94957 190.7509 199.41757 207.35625 216.99358 226.6309 236.19892 245.87091 255.78559 260.5869 266.35893 275.56294 280.36427 288.30293 300.74827 309.41493 318.79225 327.80558 337.4429 346.10957 351.88157 356.6829 366.23356 374.32823 384.43357 393.4989 401.43757 406.2389 415.8069 425.4442 435.1162 445.22157 454.8589 464.42689 474.0642 478.86555 488.24287 497.8802 502.68153 510.62019 520.2575 529.6348 539.27218 548.9095 557.5762 566.24288"> &#x041a;&#x0430;&#x043a;&#x043e;&#x0435; &#x043a;&#x043e;&#x043b;&#x0438;&#x0447;&#x0435;&#x0441;&#x0442;&#x0432;&#x043e; &#x0441;&#x0442;&#x0440;&#x0430;&#x043d;&#x0438;&#x0446; (&#x0432; &#x0442;&#x044b;&#x0441;&#x044f;&#x0447;&#x0430;&#x0445;) &#x0431;&#x0443;&#x0434;&#x0435;&#x0442; &#x043d;&#x0430;&#x0439;&#x0434;&#x0435;&#x043d;&#x043e; &#x043f;&#x043e; &#x0437;&#x0430;&#x043f;&#x0440;&#x043e;&#x0441;&#x0443; </tspan></text>
<text xml:space="preserve" transform="matrix(.49915967 0 0 .49915967 405.78666 105.97978)" font-size="17.333334" font-family="Arial" font-style="italic"><tspan y="20.64" x="571.2501 581.8754 591.51278 600.76876">&#x0417;&#x0430;&#x044f;&#x0446;</tspan></text>
<text xml:space="preserve" transform="matrix(.49915967 0 0 .49915967 405.78666 105.97978)" font-size="17.333334" font-family="ArialMT"><tspan y="20.64" x="610.6869 620.3242">? </tspan></text>
<path transform="matrix(.0013101304,0,0,.0013101304,396,26.137818)" d="M48948.689 132634.97H150056.69V141530.97H48948.689V132634.97Z" fill="#ffffff"/>
<path transform="matrix(.0013101304,0,0,.0013101304,396,26.137818)" d="M150056.69 132634.97H253450.69V141530.97H150056.69V132634.97Z" fill="#ffffff"/>
<path transform="matrix(.0013101304,0,0,.0013101304,396,26.137818)" d="M48948.689 141530.97H150056.69V150826.97H48948.689V141530.97Z" fill="#ffffff"/>
<path transform="matrix(.0013101304,0,0,.0013101304,396,26.137818)" d="M150056.69 141530.97H253450.69V150826.97H150056.69V141530.97Z" fill="#ffffff"/>
<path transform="matrix(.0013101304,0,0,.0013101304,396,26.137818)" d="M48948.689 150826.97H150056.69V160122.97H48948.689V150826.97Z" fill="#ffffff"/>
<path transform="matrix(.0013101304,0,0,.0013101304,396,26.137818)" d="M150056.69 150826.97H253450.69V160122.97H150056.69V150826.97Z" fill="#ffffff"/>
<path transform="matrix(.0013101304,0,0,.0013101304,396,26.137818)" d="M48948.689 160122.97H150056.69V169418.97H48948.689V160122.97Z" fill="#ffffff"/>
<path transform="matrix(.0013101304,0,0,.0013101304,396,26.137818)" d="M150056.69 160122.97H253450.69V169418.97H150056.69V160122.97Z" fill="#ffffff"/>
<path transform="matrix(.0013101304,0,0,.0013101304,396,26.137818)" stroke-width="508" stroke-linecap="butt" stroke-miterlimit="10" stroke-linejoin="miter" fill="none" stroke="#000000" d="M48948.689 132380.97V169672.97"/>
<path transform="matrix(.0013101304,0,0,.0013101304,396,26.137818)" stroke-width="508" stroke-linecap="butt" stroke-miterlimit="10" stroke-linejoin="miter" fill="none" stroke="#000000" d="M150056.69 132380.97V169672.97"/>
<path transform="matrix(.0013101304,0,0,.0013101304,396,26.137818)" stroke-width="508" stroke-linecap="butt" stroke-miterlimit="10" stroke-linejoin="miter" fill="none" stroke="#000000" d="M253450.69 132380.97V169672.97"/>
<path transform="matrix(.0013101304,0,0,.0013101304,396,26.137818)" stroke-width="508" stroke-linecap="butt" stroke-miterlimit="10" stroke-linejoin="miter" fill="none" stroke="#000000" d="M48694.689 132634.97H253704.69"/>
<path transform="matrix(.0013101304,0,0,.0013101304,396,26.137818)" stroke-width="508" stroke-linecap="butt" stroke-miterlimit="10" stroke-linejoin="miter" fill="none" stroke="#000000" d="M48694.689 141530.97H253704.69"/>
<path transform="matrix(.0013101304,0,0,.0013101304,396,26.137818)" stroke-width="508" stroke-linecap="butt" stroke-miterlimit="10" stroke-linejoin="miter" fill="none" stroke="#000000" d="M48694.689 150826.97H253704.69"/>
<path transform="matrix(.0013101304,0,0,.0013101304,396,26.137818)" stroke-width="508" stroke-linecap="butt" stroke-miterlimit="10" stroke-linejoin="miter" fill="none" stroke="#000000" d="M48694.689 160122.97H253704.69"/>
<path transform="matrix(.0013101304,0,0,.0013101304,396,26.137818)" stroke-width="508" stroke-linecap="butt" stroke-miterlimit="10" stroke-linejoin="miter" fill="none" stroke="#000000" d="M48694.689 169418.97H253704.69"/>
<text xml:space="preserve" transform="matrix(.49915967 0 0 .49915967 460.12916 199.90692)" font-size="17.333334" font-family="Arial" font-weight="bold"><tspan y="16.64" x="101.91926 112.76993 122.407268 132.8766 143.44994 153.79795">&#x0417;&#x0430;&#x043f;&#x0440;&#x043e;&#x0441;</tspan></text>
<text xml:space="preserve" transform="matrix(.49915967 0 0 .49915967 592.5938 199.90692)" font-size="17.333334" font-family="Arial" font-weight="bold"><tspan y="16.64" x="8.882591 21.397259 31.034594 41.67726 52.666597 62.303934 72.77327 83.3466 88.147937 97.78527 106.26127 116.8346 126.47194 136.94127 147.58394 158.22661 163.02794 168.79994 179.44261 184.24394 192.71994 207.52262 217.15995 227.26528 237.3186 246.95594 256.59327">&#x041d;&#x0430;&#x0439;&#x0434;&#x0435;&#x043d;&#x043e; &#x0441;&#x0442;&#x0440;&#x0430;&#x043d;&#x0438;&#x0446; (&#x0432; &#x0442;&#x044b;&#x0441;&#x044f;&#x0447;&#x0430;&#x0445;)</tspan></text>
<text xml:space="preserve" transform="matrix(.49915967 0 0 .49915967 460.12916 211.56185)" font-size="17.333334" font-family="Arial" font-style="italic"><tspan y="16.64" x="58.514276 71.028949 79.21028 88.84762 98.38095 108.01829 117.655628 122.456958 126.94629 131.74762 144.29695 153.93428 163.57161 173.10495 187.54363 197.18096">&#x0421;&#x043a;&#x0430;&#x043d;&#x0435;&#x0440; | &#x041f;&#x0440;&#x0438;&#x043d;&#x0442;&#x0435;&#x0440;</tspan></text>
<text xml:space="preserve" transform="matrix(.49915967 0 0 .49915967 592.5938 211.56185)" font-size="17.333334" font-family="ArialMT"><tspan y="16.64" x="121.23204 130.86937 140.5067">140</tspan></text>
<text xml:space="preserve" transform="matrix(.49915967 0 0 .49915967 460.12916 223.74082)" font-size="17.333334" font-family="Arial" font-style="italic"><tspan y="16.64" x="103.116458 115.63113 123.81246 133.4498 142.98314 152.62047">&#x0421;&#x043a;&#x0430;&#x043d;&#x0435;&#x0440;</tspan></text>
<text xml:space="preserve" transform="matrix(.49915967 0 0 .49915967 592.5938 223.74082)" font-size="17.333334" font-family="ArialMT"><tspan y="16.64" x="126.05058 135.68791">89</tspan></text>
<text xml:space="preserve" transform="matrix(.49915967 0 0 .49915967 460.12916 235.91979)" font-size="17.333334" font-family="Arial" font-style="italic"><tspan y="16.64" x="95.15043 107.69976 117.3371 126.974437 136.50777 150.94644 160.58377">&#x041f;&#x0440;&#x0438;&#x043d;&#x0442;&#x0435;&#x0440;</tspan></text>
<text xml:space="preserve" transform="matrix(.49915967 0 0 .49915967 592.5938 235.91979)" font-size="17.333334" font-family="ArialMT"><tspan y="16.64" x="126.05058 135.68791">65</tspan></text>
<path transform="matrix(.0013101304,0,0,.0013101304,396,26.137818)" d="M7470.052 116397H288378.07V129945H7470.052Z" fill-opacity="0" fill-rule="evenodd"/>
<text xml:space="preserve" transform="matrix(.49915967 0 0 .49915967 405.78675 178.63306)" font-size="17.333334" font-family="Arial" font-weight="bold"><tspan y="20.64" x="9 18.637335 24.409337 34.04667">8-2.</tspan></text>
<text xml:space="preserve" transform="matrix(.49915967 0 0 .49915967 405.78675 178.63306)" font-size="17.333334" font-family="ArialMT"><tspan y="20.64" x="38.858888 43.66022 53.748224 63.38556 71.150897 80.78823 90.42557 95.2269 102.99223 112.26557 122.3709 132.04291 141.05625 150.69358 159.36025 167.29892 176.31224 185.94957 190.7509 199.41757 207.35625 216.99358 226.6309 236.19892 245.87091 255.78559 260.5869 266.35893 275.56294 280.36427 288.30293 300.74827 309.41493 318.79225 327.80558 337.4429 346.10957 351.88157 356.6829 366.23356 374.32823 384.43357 393.4989 401.43757 406.2389 415.8069 425.4442 435.1162 445.22157 454.8589 464.42689 474.0642 478.86555 488.24287 497.8802 502.68153 510.62019 520.2575 529.6348 539.27218 548.9095 557.5762 566.24288"> &#x041a;&#x0430;&#x043a;&#x043e;&#x0435; &#x043a;&#x043e;&#x043b;&#x0438;&#x0447;&#x0435;&#x0441;&#x0442;&#x0432;&#x043e; &#x0441;&#x0442;&#x0440;&#x0430;&#x043d;&#x0438;&#x0446; (&#x0432; &#x0442;&#x044b;&#x0441;&#x044f;&#x0447;&#x0430;&#x0445;) &#x0431;&#x0443;&#x0434;&#x0435;&#x0442; &#x043d;&#x0430;&#x0439;&#x0434;&#x0435;&#x043d;&#x043e; &#x043f;&#x043e; &#x0437;&#x0430;&#x043f;&#x0440;&#x043e;&#x0441;&#x0443; </tspan></text>
<text xml:space="preserve" transform="matrix(.49915967 0 0 .49915967 405.78675 178.63306)" font-size="17.333334" font-family="Arial" font-style="italic"><tspan y="20.64" x="571.2501 583.7648 591.9461 601.58346 611.11679 620.7541 630.3914 635.19277 646.73678">&#x0421;&#x043a;&#x0430;&#x043d;&#x0435;&#x0440; &#x0026; </tspan></text>
<text xml:space="preserve" transform="matrix(.49915967 0 0 .49915967 405.78675 178.63306)" font-size="17.333334" font-family="Arial" font-style="italic"><tspan y="41.44" x="9 21.549336 31.18667 40.824007 50.357339 64.796009 74.43334">&#x041f;&#x0440;&#x0438;&#x043d;&#x0442;&#x0435;&#x0440;</tspan></text>
<text xml:space="preserve" transform="matrix(.49915967 0 0 .49915967 405.78675 178.63306)" font-size="17.333334" font-family="ArialMT"><tspan y="41.44" x="84.07448 93.711818">? </tspan></text>
<path transform="matrix(.0013101304,0,0,.0013101304,396,26.137818)" d="M48949.04 188088.77H150057.05V196984.77H48949.04V188088.77Z" fill="#ffffff"/>
<path transform="matrix(.0013101304,0,0,.0013101304,396,26.137818)" d="M150057.05 188088.77H253451.05V196984.77H150057.05V188088.77Z" fill="#ffffff"/>
<path transform="matrix(.0013101304,0,0,.0013101304,396,26.137818)" d="M48949.04 196984.77H150057.05V206280.77H48949.04V196984.77Z" fill="#ffffff"/>
<path transform="matrix(.0013101304,0,0,.0013101304,396,26.137818)" d="M150057.05 196984.77H253451.05V206280.77H150057.05V196984.77Z" fill="#ffffff"/>
<path transform="matrix(.0013101304,0,0,.0013101304,396,26.137818)" d="M48949.04 206280.77H150057.05V215576.77H48949.04V206280.77Z" fill="#ffffff"/>
<path transform="matrix(.0013101304,0,0,.0013101304,396,26.137818)" d="M150057.05 206280.77H253451.05V215576.77H150057.05V206280.77Z" fill="#ffffff"/>
<path transform="matrix(.0013101304,0,0,.0013101304,396,26.137818)" d="M48949.04 215576.77H150057.05V224872.77H48949.04V215576.77Z" fill="#ffffff"/>
<path transform="matrix(.0013101304,0,0,.0013101304,396,26.137818)" d="M150057.05 215576.77H253451.05V224872.77H150057.05V215576.77Z" fill="#ffffff"/>
<path transform="matrix(.0013101304,0,0,.0013101304,396,26.137818)" stroke-width="508" stroke-linecap="butt" stroke-miterlimit="10" stroke-linejoin="miter" fill="none" stroke="#000000" d="M48949.04 187834.77V225126.77"/>
<path transform="matrix(.0013101304,0,0,.0013101304,396,26.137818)" stroke-width="508" stroke-linecap="butt" stroke-miterlimit="10" stroke-linejoin="miter" fill="none" stroke="#000000" d="M150057.05 187834.77V225126.77"/>
<path transform="matrix(.0013101304,0,0,.0013101304,396,26.137818)" stroke-width="508" stroke-linecap="butt" stroke-miterlimit="10" stroke-linejoin="miter" fill="none" stroke="#000000" d="M253451.05 187834.77V225126.77"/>
<path transform="matrix(.0013101304,0,0,.0013101304,396,26.137818)" stroke-width="508" stroke-linecap="butt" stroke-miterlimit="10" stroke-linejoin="miter" fill="none" stroke="#000000" d="M48695.04 188088.77H253705.05"/>
<path transform="matrix(.0013101304,0,0,.0013101304,396,26.137818)" stroke-width="508" stroke-linecap="butt" stroke-miterlimit="10" stroke-linejoin="miter" fill="none" stroke="#000000" d="M48695.04 196984.77H253705.05"/>
<path transform="matrix(.0013101304,0,0,.0013101304,396,26.137818)" stroke-width="508" stroke-linecap="butt" stroke-miterlimit="10" stroke-linejoin="miter" fill="none" stroke="#000000" d="M48695.04 206280.77H253705.05"/>
<path transform="matrix(.0013101304,0,0,.0013101304,396,26.137818)" stroke-width="508" stroke-linecap="butt" stroke-miterlimit="10" stroke-linejoin="miter" fill="none" stroke="#000000" d="M48695.04 215576.77H253705.05"/>
<path transform="matrix(.0013101304,0,0,.0013101304,396,26.137818)" stroke-width="508" stroke-linecap="butt" stroke-miterlimit="10" stroke-linejoin="miter" fill="none" stroke="#000000" d="M48695.04 224872.77H253705.05"/>
<text xml:space="preserve" transform="matrix(.49915967 0 0 .49915967 460.12965 272.5586)" font-size="17.333334" font-family="Arial" font-weight="bold"><tspan y="16.64" x="101.91926 112.76993 122.407268 132.8766 143.44994 153.79795">&#x0417;&#x0430;&#x043f;&#x0440;&#x043e;&#x0441;</tspan></text>
<text xml:space="preserve" transform="matrix(.49915967 0 0 .49915967 592.5943 272.5586)" font-size="17.333334" font-family="Arial" font-weight="bold"><tspan y="16.64" x="8.882591 21.397259 31.034594 41.67726 52.666597 62.303934 72.77327 83.3466 88.147937 97.78527 106.26127 116.8346 126.47194 136.94127 147.58394 158.22661 163.02794 168.79994 179.44261 184.24394 192.71994 207.52262 217.15995 227.26528 237.3186 246.95594 256.59327">&#x041d;&#x0430;&#x0439;&#x0434;&#x0435;&#x043d;&#x043e; &#x0441;&#x0442;&#x0440;&#x0430;&#x043d;&#x0438;&#x0446; (&#x0432; &#x0442;&#x044b;&#x0441;&#x044f;&#x0447;&#x0430;&#x0445;)</tspan></text>
<text xml:space="preserve" transform="matrix(.49915967 0 0 .49915967 460.12965 284.21354)" font-size="17.333334" font-family="Arial" font-style="italic"><tspan y="16.64" x="61.044244 74.80691 83.47357 97.91224 107.65357 116.92691 126.68558 131.48691 143.03092 147.83225 159.01226 168.64958 176.83092 185.01226 194.64958">&#x0424;&#x0443;&#x0442;&#x0431;&#x043e;&#x043b; &#x0026; &#x0425;&#x043e;&#x043a;&#x043a;&#x0435;&#x0439;</tspan></text>
<text xml:space="preserve" transform="matrix(.49915967 0 0 .49915967 592.5943 284.21354)" font-size="17.333334" font-family="ArialMT"><tspan y="16.64" x="121.23204 130.86937 140.5067">120</tspan></text>
<text xml:space="preserve" transform="matrix(.49915967 0 0 .49915967 460.12965 296.3925)" font-size="17.333334" font-family="Arial" font-style="italic"><tspan y="16.64" x="99.86327 113.62594 122.2926 136.73128 146.47261 155.74594">&#x0424;&#x0443;&#x0442;&#x0431;&#x043e;&#x043b;</tspan></text>
<text xml:space="preserve" transform="matrix(.49915967 0 0 .49915967 592.5943 296.3925)" font-size="17.333334" font-family="ArialMT"><tspan y="16.64" x="121.23204 130.86937 140.5067">170</tspan></text>
<text xml:space="preserve" transform="matrix(.49915967 0 0 .49915967 460.12965 308.57148)" font-size="17.333334" font-family="Arial" font-style="italic"><tspan y="16.64" x="104.461818 115.641819 125.27915 133.46048 141.64182 151.27915">&#x0425;&#x043e;&#x043a;&#x043a;&#x0435;&#x0439;</tspan></text>
<text xml:space="preserve" transform="matrix(.49915967 0 0 .49915967 592.5943 308.57148)" font-size="17.333334" font-family="ArialMT"><tspan y="16.64" x="121.23204 130.86937 140.5067">135</tspan></text>
<path transform="matrix(.0013101304,0,0,.0013101304,396,26.137818)" d="M7469.941 171980H294929.95V185528H7469.941Z" fill-opacity="0" fill-rule="evenodd"/>
<text xml:space="preserve" transform="matrix(.49915967 0 0 .49915967 405.7866 251.45404)" font-size="17.333334" font-family="Arial" font-weight="bold"><tspan y="20.64" x="9 18.637335 24.409337 34.04667">8-3.</tspan></text>
<text xml:space="preserve" transform="matrix(.49915967 0 0 .49915967 405.7866 251.45404)" font-size="17.333334" font-family="ArialMT"><tspan y="20.64" x="38.858888 43.66022 53.748224 63.38556 71.150897 80.78823 90.42557 95.2269 102.99223 112.26557 122.3709 132.04291 141.05625 150.69358 159.36025 167.29892 176.31224 185.94957 190.7509 199.41757 207.35625 216.99358 226.6309 236.19892 245.87091 255.78559 260.5869 266.35893 275.56294 280.36427 288.30293 300.74827 309.41493 318.79225 327.80558 337.4429 346.10957 351.88157 356.6829 366.23356 374.32823 384.43357 393.4989 401.43757 406.2389 415.8069 425.4442 435.1162 445.22157 454.8589 464.42689 474.0642 478.86555 488.24287 497.8802 502.68153 510.62019 520.2575 529.6348 539.27218 548.9095 557.5762 566.24288"> &#x041a;&#x0430;&#x043a;&#x043e;&#x0435; &#x043a;&#x043e;&#x043b;&#x0438;&#x0447;&#x0435;&#x0441;&#x0442;&#x0432;&#x043e; &#x0441;&#x0442;&#x0440;&#x0430;&#x043d;&#x0438;&#x0446; (&#x0432; &#x0442;&#x044b;&#x0441;&#x044f;&#x0447;&#x0430;&#x0445;) &#x0431;&#x0443;&#x0434;&#x0435;&#x0442; &#x043d;&#x0430;&#x0439;&#x0434;&#x0435;&#x043d;&#x043e; &#x043f;&#x043e; &#x0437;&#x0430;&#x043f;&#x0440;&#x043e;&#x0441;&#x0443; </tspan></text>
<text xml:space="preserve" transform="matrix(.49915967 0 0 .49915967 405.7866 251.45404)" font-size="17.333334" font-family="Arial" font-style="italic"><tspan y="20.64" x="571.2501 585.0128 593.6795 608.11819 617.8595 627.1328 636.8915 641.6928 646.1821 650.98348 662.16348 671.8008 679.9821 688.16348 697.8008">&#x0424;&#x0443;&#x0442;&#x0431;&#x043e;&#x043b; | &#x0425;&#x043e;&#x043a;&#x043a;&#x0435;&#x0439;</tspan></text>
<text xml:space="preserve" transform="matrix(.49915967 0 0 .49915967 405.7866 251.45404)" font-size="17.333334" font-family="ArialMT"><tspan y="20.64" x="707.48049 717.1178">? </tspan></text>
<path transform="matrix(.0013101304,0,0,.0013101304,396,26.137818)" d="M48949.04 246233.77H150057.05V255129.77H48949.04V246233.77Z" fill="#ffffff"/>
<path transform="matrix(.0013101304,0,0,.0013101304,396,26.137818)" d="M150057.05 246233.77H253451.05V255129.77H150057.05V246233.77Z" fill="#ffffff"/>
<path transform="matrix(.0013101304,0,0,.0013101304,396,26.137818)" d="M48949.04 255129.77H150057.05V264425.76H48949.04V255129.77Z" fill="#ffffff"/>
<path transform="matrix(.0013101304,0,0,.0013101304,396,26.137818)" d="M150057.05 255129.77H253451.05V264425.76H150057.05V255129.77Z" fill="#ffffff"/>
<path transform="matrix(.0013101304,0,0,.0013101304,396,26.137818)" d="M48949.04 264425.76H150057.05V273721.76H48949.04V264425.76Z" fill="#ffffff"/>
<path transform="matrix(.0013101304,0,0,.0013101304,396,26.137818)" d="M150057.05 264425.76H253451.05V273721.76H150057.05V264425.76Z" fill="#ffffff"/>
<path transform="matrix(.0013101304,0,0,.0013101304,396,26.137818)" d="M48949.04 273721.76H150057.05V283017.76H48949.04V273721.76Z" fill="#ffffff"/>
<path transform="matrix(.0013101304,0,0,.0013101304,396,26.137818)" d="M150057.05 273721.76H253451.05V283017.76H150057.05V273721.76Z" fill="#ffffff"/>
<path transform="matrix(.0013101304,0,0,.0013101304,396,26.137818)" stroke-width="508" stroke-linecap="butt" stroke-miterlimit="10" stroke-linejoin="miter" fill="none" stroke="#000000" d="M48949.04 245979.77V283271.76"/>
<path transform="matrix(.0013101304,0,0,.0013101304,396,26.137818)" stroke-width="508" stroke-linecap="butt" stroke-miterlimit="10" stroke-linejoin="miter" fill="none" stroke="#000000" d="M150057.05 245979.77V283271.76"/>
<path transform="matrix(.0013101304,0,0,.0013101304,396,26.137818)" stroke-width="508" stroke-linecap="butt" stroke-miterlimit="10" stroke-linejoin="miter" fill="none" stroke="#000000" d="M253451.05 245979.77V283271.76"/>
<path transform="matrix(.0013101304,0,0,.0013101304,396,26.137818)" stroke-width="508" stroke-linecap="butt" stroke-miterlimit="10" stroke-linejoin="miter" fill="none" stroke="#000000" d="M48695.04 246233.77H253705.05"/>
<path transform="matrix(.0013101304,0,0,.0013101304,396,26.137818)" stroke-width="508" stroke-linecap="butt" stroke-miterlimit="10" stroke-linejoin="miter" fill="none" stroke="#000000" d="M48695.04 255129.77H253705.05"/>
<path transform="matrix(.0013101304,0,0,.0013101304,396,26.137818)" stroke-width="508" stroke-linecap="butt" stroke-miterlimit="10" stroke-linejoin="miter" fill="none" stroke="#000000" d="M48695.04 264425.76H253705.05"/>
<path transform="matrix(.0013101304,0,0,.0013101304,396,26.137818)" stroke-width="508" stroke-linecap="butt" stroke-miterlimit="10" stroke-linejoin="miter" fill="none" stroke="#000000" d="M48695.04 273721.76H253705.05"/>
<path transform="matrix(.0013101304,0,0,.0013101304,396,26.137818)" stroke-width="508" stroke-linecap="butt" stroke-miterlimit="10" stroke-linejoin="miter" fill="none" stroke="#000000" d="M48695.04 283017.76H253705.05"/>
<text xml:space="preserve" transform="matrix(.49915967 0 0 .49915967 460.12965 348.73616)" font-size="17.333334" font-family="Arial" font-weight="bold"><tspan y="16.64" x="101.91926 112.76993 122.407268 132.8766 143.44994 153.79795">&#x0417;&#x0430;&#x043f;&#x0440;&#x043e;&#x0441;</tspan></text>
<text xml:space="preserve" transform="matrix(.49915967 0 0 .49915967 592.5943 348.73616)" font-size="17.333334" font-family="Arial" font-weight="bold"><tspan y="16.64" x="8.882591 21.397259 31.034594 41.67726 52.666597 62.303934 72.77327 83.3466 88.147937 97.78527 106.26127 116.8346 126.47194 136.94127 147.58394 158.22661 163.02794 168.79994 179.44261 184.24394 192.71994 207.52262 217.15995 227.26528 237.3186 246.95594 256.59327">&#x041d;&#x0430;&#x0439;&#x0434;&#x0435;&#x043d;&#x043e; &#x0441;&#x0442;&#x0440;&#x0430;&#x043d;&#x0438;&#x0446; (&#x0432; &#x0442;&#x044b;&#x0441;&#x044f;&#x0447;&#x0430;&#x0445;)</tspan></text>
<text xml:space="preserve" transform="matrix(.49915967 0 0 .49915967 460.12965 360.39106)" font-size="17.333334" font-family="Arial" font-style="italic"><tspan y="16.64" x="77.7081 89.581439 99.21877 108.960109 118.40678 127.97478 137.07479 141.87612 153.42012 158.22145 169.76546 179.40279">&#x041b;&#x0435;&#x0431;&#x0435;&#x0434;&#x044c; &#x0026; &#x0420;&#x0430;&#x043a;</tspan></text>
<text xml:space="preserve" transform="matrix(.49915967 0 0 .49915967 592.5943 360.39106)" font-size="17.333334" font-family="ArialMT"><tspan y="16.64" x="121.23204 130.86937 140.5067">295</tspan></text>
<text xml:space="preserve" transform="matrix(.49915967 0 0 .49915967 460.12965 372.57005)" font-size="17.333334" font-family="Arial" font-style="italic"><tspan y="16.64" x="71.06196 82.935298 92.57263 102.313968 111.760639 121.328639 130.42864 135.22997 146.77397 151.5753 167.74732 176.41399 184.59532">&#x041b;&#x0435;&#x0431;&#x0435;&#x0434;&#x044c; &#x0026; &#x0429;&#x0443;&#x043a;&#x0430;</tspan></text>
<text xml:space="preserve" transform="matrix(.49915967 0 0 .49915967 592.5943 372.57005)" font-size="17.333334" font-family="ArialMT"><tspan y="16.64" x="121.23204 130.86937 140.5067">310</tspan></text>
<text xml:space="preserve" transform="matrix(.49915967 0 0 .49915967 460.12965 384.749)" font-size="17.333334" font-family="Arial" font-style="italic"><tspan y="16.64" x="43.538316 55.41165 65.04899 74.79032 84.23699 93.80499 102.90499 107.70632 119.25032 124.05165 129.82366 141.36766 151.00499 159.18633">&#x041b;&#x0435;&#x0431;&#x0435;&#x0434;&#x044c; &#x0026; (&#x0420;&#x0430;&#x043a; </tspan></text>
<text xml:space="preserve" transform="matrix(.49915967 0 0 .49915967 460.12965 384.749)" font-size="17.333334" font-family="ArialMT"><tspan y="16.64" x="164.08217 168.5715">| </tspan></text>
<text xml:space="preserve" transform="matrix(.49915967 0 0 .49915967 460.12965 384.749)" font-size="17.333334" font-family="Arial" font-style="italic"><tspan y="16.64" x="173.39774 189.56975 198.23642 206.41776 216.05509">&#x0429;&#x0443;&#x043a;&#x0430;)</tspan></text>
<text xml:space="preserve" transform="matrix(.49915967 0 0 .49915967 592.5943 384.749)" font-size="17.333334" font-family="ArialMT"><tspan y="16.64" x="121.23204 130.86937 140.5067">510</tspan></text>
<path transform="matrix(.0013101304,0,0,.0013101304,396,26.137818)" d="M7469.936 227563H288377.95V241111H7469.936Z" fill-opacity="0" fill-rule="evenodd"/>
<text xml:space="preserve" transform="matrix(.49915967 0 0 .49915967 405.7866 324.275)" font-size="17.333334" font-family="Arial" font-weight="bold"><tspan y="20.64" x="9 18.637335 24.409337 34.04667">8-4.</tspan></text>
<text xml:space="preserve" transform="matrix(.49915967 0 0 .49915967 405.7866 324.275)" font-size="17.333334" font-family="ArialMT"><tspan y="20.64" x="38.858888 43.66022 53.748224 63.38556 71.150897 80.78823 90.42557 95.2269 102.99223 112.26557 122.3709 132.04291 141.05625 150.69358 159.36025 167.29892 176.31224 185.94957 190.7509 199.41757 207.35625 216.99358 226.6309 236.19892 245.87091 255.78559 260.5869 266.35893 275.56294 280.36427 288.30293 300.74827 309.41493 318.79225 327.80558 337.4429 346.10957 351.88157 356.6829 366.23356 374.32823 384.43357 393.4989 401.43757 406.2389 415.8069 425.4442 435.1162 445.22157 454.8589 464.42689 474.0642 478.86555 488.24287 497.8802 502.68153 510.62019 520.2575 529.6348 539.27218 548.9095 557.5762 566.24288"> &#x041a;&#x0430;&#x043a;&#x043e;&#x0435; &#x043a;&#x043e;&#x043b;&#x0438;&#x0447;&#x0435;&#x0441;&#x0442;&#x0432;&#x043e; &#x0441;&#x0442;&#x0440;&#x0430;&#x043d;&#x0438;&#x0446; (&#x0432; &#x0442;&#x044b;&#x0441;&#x044f;&#x0447;&#x0430;&#x0445;) &#x0431;&#x0443;&#x0434;&#x0435;&#x0442; &#x043d;&#x0430;&#x0439;&#x0434;&#x0435;&#x043d;&#x043e; &#x043f;&#x043e; &#x0437;&#x0430;&#x043f;&#x0440;&#x043e;&#x0441;&#x0443; </tspan></text>
<text xml:space="preserve" transform="matrix(.49915967 0 0 .49915967 405.7866 324.275)" font-size="17.333334" font-family="Arial" font-style="italic"><tspan y="20.64" x="571.2501 583.1235 592.7608 602.50216 611.9488 621.5168 630.61679 635.4181 646.9621 651.7634 663.30746 672.94479 681.1261 685.9274 697.47146">&#x041b;&#x0435;&#x0431;&#x0435;&#x0434;&#x044c; &#x0026; &#x0420;&#x0430;&#x043a; &#x0026; </tspan></text>
<text xml:space="preserve" transform="matrix(.49915967 0 0 .49915967 405.7866 324.275)" font-size="17.333334" font-family="Arial" font-style="italic"><tspan y="41.44" x="9 25.172 33.83867 42.020006">&#x0429;&#x0443;&#x043a;&#x0430;</tspan></text>
<text xml:space="preserve" transform="matrix(.49915967 0 0 .49915967 405.7866 324.275)" font-size="17.333334" font-family="ArialMT"><tspan y="41.44" x="51.668886 61.30622">? </tspan></text>
<path transform="matrix(.0013101304,0,0,.0013101304,396,26.137818)" d="M61877.048 308887H106553.05V318523H61877.048Z" fill="#eeeeee" fill-rule="evenodd"/>
<path transform="matrix(.0013101304,0,0,.0013101304,396,26.137818)" stroke-width="340" stroke-linecap="butt" stroke-linejoin="round" fill="none" stroke="#595959" d="M61877.048 308887H106553.05V318523H61877.048Z"/>
<text xml:space="preserve" transform="matrix(.49915967 0 0 .49915967 477.06703 430.82008)" font-size="14.284934" font-family="ArialMT"><tspan y="17.859206" x="54.658647">1</tspan></text>
<path transform="matrix(.0013101304,0,0,.0013101304,396,26.137818)" d="M61877.048 318518.64H106553.05V328154.64H61877.048Z" fill="#eeeeee" fill-rule="evenodd"/>
<path transform="matrix(.0013101304,0,0,.0013101304,396,26.137818)" stroke-width="340" stroke-linecap="butt" stroke-linejoin="round" fill="none" stroke="#595959" d="M61877.048 318518.64H106553.05V328154.64H61877.048Z"/>
<path transform="matrix(.0013101304,0,0,.0013101304,396,26.137818)" d="M106533.28 308887H151209.28V318523H106533.28Z" fill="#eeeeee" fill-rule="evenodd"/>
<path transform="matrix(.0013101304,0,0,.0013101304,396,26.137818)" stroke-width="340" stroke-linecap="butt" stroke-linejoin="round" fill="none" stroke="#595959" d="M106533.28 308887H151209.28V318523H106533.28Z"/>
<text xml:space="preserve" transform="matrix(.49915967 0 0 .49915967 535.5725 430.82008)" font-size="14.284934" font-family="ArialMT"><tspan y="17.859206" x="54.658647">2</tspan></text>
<path transform="matrix(.0013101304,0,0,.0013101304,396,26.137818)" d="M106533.28 318518.64H151209.28V328154.64H106533.28Z" fill="#eeeeee" fill-rule="evenodd"/>
<path transform="matrix(.0013101304,0,0,.0013101304,396,26.137818)" stroke-width="340" stroke-linecap="butt" stroke-linejoin="round" fill="none" stroke="#595959" d="M106533.28 318518.64H151209.28V328154.64H106533.28Z"/>
<path transform="matrix(.0013101304,0,0,.0013101304,396,26.137818)" d="M151189.52 308887H195865.52V318523H151189.52Z" fill="#eeeeee" fill-rule="evenodd"/>
<path transform="matrix(.0013101304,0,0,.0013101304,396,26.137818)" stroke-width="340" stroke-linecap="butt" stroke-linejoin="round" fill="none" stroke="#595959" d="M151189.52 308887H195865.52V318523H151189.52Z"/>
<text xml:space="preserve" transform="matrix(.49915967 0 0 .49915967 594.078 430.82008)" font-size="14.284934" font-family="ArialMT"><tspan y="17.859206" x="54.658647">3</tspan></text>
<path transform="matrix(.0013101304,0,0,.0013101304,396,26.137818)" d="M151189.52 318518.64H195865.52V328154.64H151189.52Z" fill="#eeeeee" fill-rule="evenodd"/>
<path transform="matrix(.0013101304,0,0,.0013101304,396,26.137818)" stroke-width="340" stroke-linecap="butt" stroke-linejoin="round" fill="none" stroke="#595959" d="M151189.52 318518.64H195865.52V328154.64H151189.52Z"/>
<path transform="matrix(.0013101304,0,0,.0013101304,396,26.137818)" d="M195845.75 308887H240521.75V318523H195845.75Z" fill="#eeeeee" fill-rule="evenodd"/>
<path transform="matrix(.0013101304,0,0,.0013101304,396,26.137818)" stroke-width="340" stroke-linecap="butt" stroke-linejoin="round" fill="none" stroke="#595959" d="M195845.75 308887H240521.75V318523H195845.75Z"/>
<text xml:space="preserve" transform="matrix(.49915967 0 0 .49915967 652.5835 430.82008)" font-size="14.284934" font-family="ArialMT"><tspan y="17.859206" x="54.658647">4</tspan></text>
<path transform="matrix(.0013101304,0,0,.0013101304,396,26.137818)" d="M195845.75 318518.64H240521.75V328154.64H195845.75Z" fill="#eeeeee" fill-rule="evenodd"/>
<path transform="matrix(.0013101304,0,0,.0013101304,396,26.137818)" stroke-width="340" stroke-linecap="butt" stroke-linejoin="round" fill="none" stroke="#595959" d="M195845.75 318518.64H240521.75V328154.64H195845.75Z"/>
<path transform="matrix(.0013101304,0,0,.0013101304,396,26.137818)" d="M61877.158 299255.73H87401.16V308891.73H61877.158Z" fill="#eeeeee" fill-rule="evenodd"/>
<path transform="matrix(.0013101304,0,0,.0013101304,396,26.137818)" stroke-width="340" stroke-linecap="butt" stroke-linejoin="round" fill="none" stroke="#595959" d="M61877.158 299255.73H87401.16V308891.73H61877.158Z"/>
<text xml:space="preserve" transform="matrix(.49915967 0 0 .49915967 477.06715 418.20185)" font-size="14.284934" font-family="ArialMT"><tspan y="17.859206" x="15.39695 26.2535 36.510084 47.609476">&#x0424;&#x0418;&#x041e;:</tspan></text>
<path transform="matrix(.0013101304,0,0,.0013101304,396,26.137818)" d="M87398.54 299255.45H240518.53V308891.45H87398.54Z" fill="#eeeeee" fill-rule="evenodd"/>
<path transform="matrix(.0013101304,0,0,.0013101304,396,26.137818)" stroke-width="340" stroke-linecap="butt" stroke-linejoin="round" fill="none" stroke="#595959" d="M87398.54 299255.45H240518.53V308891.45H87398.54Z"/>
</g>
</g>
</svg>
